<svg width="315" height="68" viewBox="0 0 315 68" fill="none" xmlns="http://www.w3.org/2000/svg">
<path d="M0 9.256L4.056 0.156H6.136L10.205 9.256H7.995L4.667 1.222H5.499L2.158 9.256H0ZM2.028 7.306L2.587 5.707H7.267L7.839 7.306H2.028Z" fill="#BFBFBF"/>
<path d="M11.4118 9.256V0.156H17.8338L17.8208 1.872H13.0108L13.4918 1.391L13.5048 9.256H11.4118Z" fill="#BFBFBF"/>
<path d="M19.1178 9.256V0.156H23.0568C23.8715 0.156 24.5735 0.290333 25.1628 0.559C25.7522 0.819 26.2072 1.196 26.5278 1.69C26.8485 2.184 27.0088 2.77333 27.0088 3.458C27.0088 4.134 26.8485 4.719 26.5278 5.213C26.2072 5.707 25.7522 6.08833 25.1628 6.357C24.5735 6.617 23.8715 6.747 23.0568 6.747H20.2878L21.2238 5.798V9.256H19.1178ZM21.2238 6.032L20.2878 5.031H22.9398C23.5898 5.031 24.0752 4.89233 24.3958 4.615C24.7165 4.33767 24.8768 3.952 24.8768 3.458C24.8768 2.95533 24.7165 2.56533 24.3958 2.288C24.0752 2.01067 23.5898 1.872 22.9398 1.872H20.2878L21.2238 0.871V6.032Z" fill="#BFBFBF"/>
<path d="M30.3351 3.822H34.7161V5.46H30.3351V3.822ZM30.4911 7.566H35.4441V9.256H28.3981V0.156H35.2751V1.846H30.4911V7.566Z" fill="#BFBFBF"/>
<path d="M37.1452 9.256V0.156H43.5672L43.5542 1.872H38.7442L39.2252 1.391L39.2382 9.256H37.1452Z" fill="#BFBFBF"/>
<path d="M42.0469 9.256L46.1029 0.156H48.1829L52.2519 9.256H50.0419L46.7139 1.222H47.5459L44.2049 9.256H42.0469ZM44.0749 7.306L44.6339 5.707H49.3139L49.8859 7.306H44.0749Z" fill="#BFBFBF"/>
<path d="M54.9646 9.256V1.391L55.4456 1.872H52.0656V0.156H59.9566V1.872H56.5766L57.0446 1.391V9.256H54.9646Z" fill="#BFBFBF"/>
<path d="M65.507 9.412C64.7877 9.412 64.1203 9.295 63.505 9.061C62.8983 8.827 62.3697 8.49767 61.919 8.073C61.477 7.64833 61.1303 7.15 60.879 6.578C60.6363 6.006 60.515 5.382 60.515 4.706C60.515 4.03 60.6363 3.406 60.879 2.834C61.1303 2.262 61.4813 1.76367 61.932 1.339C62.3827 0.914333 62.9113 0.584999 63.518 0.350999C64.1247 0.117 64.7833 0 65.494 0C66.2133 0 66.872 0.117 67.47 0.350999C68.0767 0.584999 68.601 0.914333 69.043 1.339C69.4937 1.76367 69.8447 2.262 70.096 2.834C70.3473 3.39733 70.473 4.02133 70.473 4.706C70.473 5.382 70.3473 6.01033 70.096 6.591C69.8447 7.163 69.4937 7.66133 69.043 8.086C68.601 8.502 68.0767 8.827 67.47 9.061C66.872 9.295 66.2177 9.412 65.507 9.412ZM65.494 7.618C65.9013 7.618 66.274 7.54867 66.612 7.41C66.9587 7.27133 67.262 7.072 67.522 6.812C67.782 6.552 67.9813 6.24433 68.12 5.889C68.2673 5.53367 68.341 5.13933 68.341 4.706C68.341 4.27267 68.2673 3.87833 68.12 3.523C67.9813 3.16767 67.782 2.86 67.522 2.6C67.2707 2.34 66.9717 2.14067 66.625 2.002C66.2783 1.86333 65.9013 1.794 65.494 1.794C65.0867 1.794 64.7097 1.86333 64.363 2.002C64.025 2.14067 63.726 2.34 63.466 2.6C63.206 2.86 63.0023 3.16767 62.855 3.523C62.7163 3.87833 62.647 4.27267 62.647 4.706C62.647 5.13067 62.7163 5.525 62.855 5.889C63.0023 6.24433 63.2017 6.552 63.453 6.812C63.713 7.072 64.0163 7.27133 64.363 7.41C64.7097 7.54867 65.0867 7.618 65.494 7.618Z" fill="#BFBFBF"/>
<path d="M72.0954 9.256V0.156H76.0344C76.849 0.156 77.551 0.290333 78.1404 0.559C78.7297 0.819 79.1847 1.196 79.5054 1.69C79.826 2.184 79.9864 2.77333 79.9864 3.458C79.9864 4.134 79.826 4.719 79.5054 5.213C79.1847 5.707 78.7297 6.08833 78.1404 6.357C77.551 6.617 76.849 6.747 76.0344 6.747H73.2654L74.2014 5.798V9.256H72.0954ZM74.2014 6.032L73.2654 5.031H75.9174C76.5674 5.031 77.0527 4.89233 77.3734 4.615C77.694 4.33767 77.8544 3.952 77.8544 3.458C77.8544 2.95533 77.694 2.56533 77.3734 2.288C77.0527 2.01067 76.5674 1.872 75.9174 1.872H73.2654L74.2014 0.871V6.032Z" fill="#BFBFBF"/>
<path d="M91.0732 9.256L88.2392 4.875L89.9422 3.848L93.4652 9.256H91.0732ZM85.1582 9.256V0.156H87.2512V9.256H85.1582ZM86.6402 5.59V3.835H89.8122V5.59H86.6402ZM90.1372 4.94L88.2002 4.706L91.1512 0.156H93.3742L90.1372 4.94Z" fill="#BFBFBF"/>
<path d="M94.9161 7.54C95.4188 7.68733 95.8391 7.73067 96.1771 7.67C96.5238 7.60067 96.8315 7.358 97.1002 6.942L97.5422 6.279L97.7372 6.058L100.753 0.156H102.82L98.9462 7.358C98.5995 8.008 98.1878 8.50633 97.7112 8.853C97.2432 9.19967 96.7275 9.39467 96.1641 9.438C95.6008 9.49 95.0158 9.39033 94.4091 9.139L94.9161 7.54ZM97.6982 7.813L93.5901 0.156H95.8391L98.8551 6.266L97.6982 7.813Z" fill="#BFBFBF"/>
<path d="M103.821 9.256V0.156H107.76C108.575 0.156 109.277 0.290333 109.866 0.559C110.455 0.819 110.91 1.196 111.231 1.69C111.552 2.184 111.712 2.77333 111.712 3.458C111.712 4.134 111.552 4.719 111.231 5.213C110.91 5.707 110.455 6.08833 109.866 6.357C109.277 6.617 108.575 6.747 107.76 6.747H104.991L105.927 5.798V9.256H103.821ZM105.927 6.032L104.991 5.031H107.643C108.293 5.031 108.778 4.89233 109.099 4.615C109.42 4.33767 109.58 3.952 109.58 3.458C109.58 2.95533 109.42 2.56533 109.099 2.288C108.778 2.01067 108.293 1.872 107.643 1.872H104.991L105.927 0.871V6.032Z" fill="#BFBFBF"/>
<path d="M117.531 9.412C116.829 9.412 116.175 9.29933 115.568 9.074C114.97 8.84 114.45 8.51067 114.008 8.086C113.566 7.66133 113.22 7.163 112.968 6.591C112.726 6.019 112.604 5.39067 112.604 4.706C112.604 4.02133 112.726 3.393 112.968 2.821C113.22 2.249 113.566 1.75067 114.008 1.326C114.459 0.901333 114.983 0.576333 115.581 0.350999C116.179 0.117 116.834 0 117.544 0C118.333 0 119.044 0.138667 119.676 0.416C120.318 0.684666 120.855 1.08333 121.288 1.612L119.936 2.86C119.624 2.50467 119.278 2.24033 118.896 2.067C118.515 1.885 118.099 1.794 117.648 1.794C117.224 1.794 116.834 1.86333 116.478 2.002C116.123 2.14067 115.815 2.34 115.555 2.6C115.295 2.86 115.092 3.16767 114.944 3.523C114.806 3.87833 114.736 4.27267 114.736 4.706C114.736 5.13933 114.806 5.53367 114.944 5.889C115.092 6.24433 115.295 6.552 115.555 6.812C115.815 7.072 116.123 7.27133 116.478 7.41C116.834 7.54867 117.224 7.618 117.648 7.618C118.099 7.618 118.515 7.53133 118.896 7.358C119.278 7.176 119.624 6.903 119.936 6.539L121.288 7.787C120.855 8.31567 120.318 8.71867 119.676 8.996C119.044 9.27333 118.329 9.412 117.531 9.412Z" fill="#BFBFBF"/>
<path d="M126.825 9.412C126.106 9.412 125.439 9.295 124.823 9.061C124.217 8.827 123.688 8.49767 123.237 8.073C122.795 7.64833 122.449 7.15 122.197 6.578C121.955 6.006 121.833 5.382 121.833 4.706C121.833 4.03 121.955 3.406 122.197 2.834C122.449 2.262 122.8 1.76367 123.25 1.339C123.701 0.914333 124.23 0.584999 124.836 0.350999C125.443 0.117 126.102 0 126.812 0C127.532 0 128.19 0.117 128.788 0.350999C129.395 0.584999 129.919 0.914333 130.361 1.339C130.812 1.76367 131.163 2.262 131.414 2.834C131.666 3.39733 131.791 4.02133 131.791 4.706C131.791 5.382 131.666 6.01033 131.414 6.591C131.163 7.163 130.812 7.66133 130.361 8.086C129.919 8.502 129.395 8.827 128.788 9.061C128.19 9.295 127.536 9.412 126.825 9.412ZM126.812 7.618C127.22 7.618 127.592 7.54867 127.93 7.41C128.277 7.27133 128.58 7.072 128.84 6.812C129.1 6.552 129.3 6.24433 129.438 5.889C129.586 5.53367 129.659 5.13933 129.659 4.706C129.659 4.27267 129.586 3.87833 129.438 3.523C129.3 3.16767 129.1 2.86 128.84 2.6C128.589 2.34 128.29 2.14067 127.943 2.002C127.597 1.86333 127.22 1.794 126.812 1.794C126.405 1.794 126.028 1.86333 125.681 2.002C125.343 2.14067 125.044 2.34 124.784 2.6C124.524 2.86 124.321 3.16767 124.173 3.523C124.035 3.87833 123.965 4.27267 123.965 4.706C123.965 5.13067 124.035 5.525 124.173 5.889C124.321 6.24433 124.52 6.552 124.771 6.812C125.031 7.072 125.335 7.27133 125.681 7.41C126.028 7.54867 126.405 7.618 126.812 7.618Z" fill="#BFBFBF"/>
<path d="M133.414 9.256V0.156H137.652C138.709 0.156 139.532 0.359666 140.122 0.766999C140.711 1.17433 141.006 1.755 141.006 2.509C141.006 3.25433 140.728 3.835 140.174 4.251C139.619 4.65833 138.882 4.862 137.964 4.862L138.211 4.316C139.233 4.316 140.026 4.51967 140.59 4.927C141.153 5.33433 141.435 5.92367 141.435 6.695C141.435 7.49233 141.131 8.12067 140.525 8.58C139.927 9.03067 139.051 9.256 137.899 9.256H133.414ZM135.507 7.696H137.821C138.306 7.696 138.674 7.60067 138.926 7.41C139.177 7.21933 139.303 6.92467 139.303 6.526C139.303 6.14467 139.177 5.863 138.926 5.681C138.674 5.49033 138.306 5.395 137.821 5.395H135.507V7.696ZM135.507 3.926H137.47C137.929 3.926 138.276 3.835 138.51 3.653C138.744 3.46233 138.861 3.185 138.861 2.821C138.861 2.457 138.744 2.184 138.51 2.002C138.276 1.81133 137.929 1.716 137.47 1.716H135.507V3.926Z" fill="#BFBFBF"/>
<path d="M146.782 9.256V0.156H155.076V9.256H152.983V1.391L153.464 1.872H148.394L148.875 1.391V9.256H146.782Z" fill="#BFBFBF"/>
<path d="M161.687 9.412C160.967 9.412 160.3 9.295 159.685 9.061C159.078 8.827 158.549 8.49767 158.099 8.073C157.657 7.64833 157.31 7.15 157.059 6.578C156.816 6.006 156.695 5.382 156.695 4.706C156.695 4.03 156.816 3.406 157.059 2.834C157.31 2.262 157.661 1.76367 158.112 1.339C158.562 0.914333 159.091 0.584999 159.698 0.350999C160.304 0.117 160.963 0 161.674 0C162.393 0 163.052 0.117 163.65 0.350999C164.256 0.584999 164.781 0.914333 165.223 1.339C165.673 1.76367 166.024 2.262 166.276 2.834C166.527 3.39733 166.653 4.02133 166.653 4.706C166.653 5.382 166.527 6.01033 166.276 6.591C166.024 7.163 165.673 7.66133 165.223 8.086C164.781 8.502 164.256 8.827 163.65 9.061C163.052 9.295 162.397 9.412 161.687 9.412ZM161.674 7.618C162.081 7.618 162.454 7.54867 162.792 7.41C163.138 7.27133 163.442 7.072 163.702 6.812C163.962 6.552 164.161 6.24433 164.3 5.889C164.447 5.53367 164.521 5.13933 164.521 4.706C164.521 4.27267 164.447 3.87833 164.3 3.523C164.161 3.16767 163.962 2.86 163.702 2.6C163.45 2.34 163.151 2.14067 162.805 2.002C162.458 1.86333 162.081 1.794 161.674 1.794C161.266 1.794 160.889 1.86333 160.543 2.002C160.205 2.14067 159.906 2.34 159.646 2.6C159.386 2.86 159.182 3.16767 159.035 3.523C158.896 3.87833 158.827 4.27267 158.827 4.706C158.827 5.13067 158.896 5.525 159.035 5.889C159.182 6.24433 159.381 6.552 159.633 6.812C159.893 7.072 160.196 7.27133 160.543 7.41C160.889 7.54867 161.266 7.618 161.674 7.618Z" fill="#BFBFBF"/>
<path d="M176.312 9.412C175.592 9.412 174.925 9.295 174.31 9.061C173.703 8.827 173.174 8.49767 172.724 8.073C172.282 7.64833 171.935 7.15 171.684 6.578C171.441 6.006 171.32 5.382 171.32 4.706C171.32 4.03 171.441 3.406 171.684 2.834C171.935 2.262 172.286 1.76367 172.737 1.339C173.187 0.914333 173.716 0.584999 174.323 0.350999C174.929 0.117 175.588 0 176.299 0C177.018 0 177.677 0.117 178.275 0.350999C178.881 0.584999 179.406 0.914333 179.848 1.339C180.298 1.76367 180.649 2.262 180.901 2.834C181.152 3.39733 181.278 4.02133 181.278 4.706C181.278 5.382 181.152 6.01033 180.901 6.591C180.649 7.163 180.298 7.66133 179.848 8.086C179.406 8.502 178.881 8.827 178.275 9.061C177.677 9.295 177.022 9.412 176.312 9.412ZM176.299 7.618C176.706 7.618 177.079 7.54867 177.417 7.41C177.763 7.27133 178.067 7.072 178.327 6.812C178.587 6.552 178.786 6.24433 178.925 5.889C179.072 5.53367 179.146 5.13933 179.146 4.706C179.146 4.27267 179.072 3.87833 178.925 3.523C178.786 3.16767 178.587 2.86 178.327 2.6C178.075 2.34 177.776 2.14067 177.43 2.002C177.083 1.86333 176.706 1.794 176.299 1.794C175.891 1.794 175.514 1.86333 175.168 2.002C174.83 2.14067 174.531 2.34 174.271 2.6C174.011 2.86 173.807 3.16767 173.66 3.523C173.521 3.87833 173.452 4.27267 173.452 4.706C173.452 5.13067 173.521 5.525 173.66 5.889C173.807 6.24433 174.006 6.552 174.258 6.812C174.518 7.072 174.821 7.27133 175.168 7.41C175.514 7.54867 175.891 7.618 176.299 7.618Z" fill="#BFBFBF"/>
<path d="M181.777 0.156H184.208L186.093 2.912L187.978 0.156H190.448L187.419 4.511L190.695 9.256H188.212L186.093 6.24L184 9.256H181.569L184.819 4.602L181.777 0.156Z" fill="#BFBFBF"/>
<path d="M191.66 9.256V0.156H195.599C196.413 0.156 197.115 0.290333 197.705 0.559C198.294 0.819 198.749 1.196 199.07 1.69C199.39 2.184 199.551 2.77333 199.551 3.458C199.551 4.134 199.39 4.719 199.07 5.213C198.749 5.707 198.294 6.08833 197.705 6.357C197.115 6.617 196.413 6.747 195.599 6.747H192.83L193.766 5.798V9.256H191.66ZM193.766 6.032L192.83 5.031H195.482C196.132 5.031 196.617 4.89233 196.938 4.615C197.258 4.33767 197.419 3.952 197.419 3.458C197.419 2.95533 197.258 2.56533 196.938 2.288C196.617 2.01067 196.132 1.872 195.482 1.872H192.83L193.766 0.871V6.032Z" fill="#BFBFBF"/>
<path d="M199.456 9.256L203.512 0.156H205.592L209.661 9.256H207.451L204.123 1.222H204.955L201.614 9.256H199.456ZM201.484 7.306L202.043 5.707H206.723L207.295 7.306H201.484Z" fill="#BFBFBF"/>
<path d="M217.108 0.156H219.214V9.256H217.108V0.156ZM212.974 9.256H210.868V0.156H212.974V9.256ZM217.264 5.525H212.818V3.744H217.264V5.525Z" fill="#BFBFBF"/>
<path d="M223.431 3.822H227.812V5.46H223.431V3.822ZM223.587 7.566H228.54V9.256H221.494V0.156H228.371V1.846H223.587V7.566Z" fill="#BFBFBF"/>
<path d="M235.886 9.256V1.391L236.367 1.872H232.987V0.156H240.878V1.872H237.498L237.966 1.391V9.256H235.886Z" fill="#BFBFBF"/>
<path d="M242.2 9.256V0.156H246.139C246.954 0.156 247.656 0.290333 248.245 0.559C248.834 0.819 249.289 1.196 249.61 1.69C249.931 2.184 250.091 2.77333 250.091 3.458C250.091 4.134 249.931 4.719 249.61 5.213C249.289 5.707 248.834 6.08833 248.245 6.357C247.656 6.617 246.954 6.747 246.139 6.747H243.37L244.306 5.798V9.256H242.2ZM244.306 6.032L243.37 5.031H246.022C246.672 5.031 247.157 4.89233 247.478 4.615C247.799 4.33767 247.959 3.952 247.959 3.458C247.959 2.95533 247.799 2.56533 247.478 2.288C247.157 2.01067 246.672 1.872 246.022 1.872H243.37L244.306 0.871V6.032Z" fill="#BFBFBF"/>
<path d="M251.589 7.54C252.092 7.68733 252.512 7.73067 252.85 7.67C253.197 7.60067 253.504 7.358 253.773 6.942L254.215 6.279L254.41 6.058L257.426 0.156H259.493L255.619 7.358C255.272 8.008 254.861 8.50633 254.384 8.853C253.916 9.19967 253.4 9.39467 252.837 9.438C252.274 9.49 251.689 9.39033 251.082 9.139L251.589 7.54ZM254.371 7.813L250.263 0.156H252.512L255.528 6.266L254.371 7.813Z" fill="#BFBFBF"/>
<path d="M266.373 8.32V1.872H263.253L263.214 3.198C263.188 3.76133 263.149 4.29433 263.097 4.797C263.054 5.29967 262.985 5.759 262.889 6.175C262.794 6.58233 262.668 6.929 262.512 7.215C262.365 7.501 262.179 7.70467 261.953 7.826L259.704 7.54C260.016 7.54867 260.272 7.44033 260.471 7.215C260.679 6.98967 260.844 6.67333 260.965 6.266C261.087 5.85 261.173 5.36467 261.225 4.81C261.286 4.25533 261.329 3.653 261.355 3.003L261.459 0.156H268.453V8.32H266.373ZM259.405 11.141L259.418 7.54H269.727V11.141H267.777V9.256H261.355V11.141H259.405Z" fill="#BFBFBF"/>
<path d="M270.169 9.256L274.225 0.156H276.305L280.374 9.256H278.164L274.836 1.222H275.668L272.327 9.256H270.169ZM272.197 7.306L272.756 5.707H277.436L278.008 7.306H272.197Z" fill="#BFBFBF"/>
<path d="M289.617 9.412C288.898 9.412 288.231 9.295 287.615 9.061C287.009 8.827 286.48 8.49767 286.029 8.073C285.587 7.64833 285.241 7.15 284.989 6.578C284.747 6.006 284.625 5.382 284.625 4.706C284.625 4.03 284.747 3.406 284.989 2.834C285.241 2.262 285.592 1.76367 286.042 1.339C286.493 0.914333 287.022 0.584999 287.628 0.350999C288.235 0.117 288.894 0 289.604 0C290.324 0 290.982 0.117 291.58 0.350999C292.187 0.584999 292.711 0.914333 293.153 1.339C293.604 1.76367 293.955 2.262 294.206 2.834C294.458 3.39733 294.583 4.02133 294.583 4.706C294.583 5.382 294.458 6.01033 294.206 6.591C293.955 7.163 293.604 7.66133 293.153 8.086C292.711 8.502 292.187 8.827 291.58 9.061C290.982 9.295 290.328 9.412 289.617 9.412ZM289.604 7.618C290.012 7.618 290.384 7.54867 290.722 7.41C291.069 7.27133 291.372 7.072 291.632 6.812C291.892 6.552 292.092 6.24433 292.23 5.889C292.378 5.53367 292.451 5.13933 292.451 4.706C292.451 4.27267 292.378 3.87833 292.23 3.523C292.092 3.16767 291.892 2.86 291.632 2.6C291.381 2.34 291.082 2.14067 290.735 2.002C290.389 1.86333 290.012 1.794 289.604 1.794C289.197 1.794 288.82 1.86333 288.473 2.002C288.135 2.14067 287.836 2.34 287.576 2.6C287.316 2.86 287.113 3.16767 286.965 3.523C286.827 3.87833 286.757 4.27267 286.757 4.706C286.757 5.13067 286.827 5.525 286.965 5.889C287.113 6.24433 287.312 6.552 287.563 6.812C287.823 7.072 288.127 7.27133 288.473 7.41C288.82 7.54867 289.197 7.618 289.604 7.618Z" fill="#BFBFBF"/>
<path d="M298.042 9.256V1.391L298.523 1.872H295.143V0.156H303.034V1.872H299.654L300.122 1.391V9.256H298.042Z" fill="#BFBFBF"/>
<path d="M81.7715 51.5617C81.7715 49.1516 82.9904 47.8496 86.8964 47.8496C90.8024 47.8496 92.0213 49.1516 92.0213 51.5617V61.2575C92.0213 63.6676 90.8024 64.9696 86.8964 64.9696C82.9904 64.9696 81.7715 63.6676 81.7715 61.2575V51.5617ZM86.8964 61.8115C87.5612 61.8115 87.866 61.7007 87.866 60.7034V52.1157C87.866 51.1185 87.5612 51.0077 86.8964 51.0077C86.2315 51.0077 85.9268 51.1185 85.9268 52.1157V60.7034C85.9268 61.7007 86.2315 61.8115 86.8964 61.8115Z" fill="#BFBFBF"/>
<path d="M100.852 64.7203L99.1347 60.6757L97.4726 64.7203H93.2064L96.9739 56.2434L93.1787 48.0989H97.5834L99.2732 52.0326L100.908 48.0989H105.174L101.434 56.5204L105.257 64.7203H100.852Z" fill="#BFBFBF"/>
<path d="M110.627 58.9028V64.7203H106.472V48.0989H113.536C115.115 48.0989 116.722 48.8746 116.722 50.8692V54.7475C116.722 56.6589 116.389 57.7393 115.697 58.2933C115.06 58.8197 114.146 58.9028 112.567 58.9028H110.627ZM110.627 51.1462V55.8555H112.013C112.373 55.8555 112.567 55.4954 112.567 54.7475V52.2543C112.567 51.5063 112.373 51.1462 112.013 51.1462H110.627Z" fill="#BFBFBF"/>
<path d="M121.117 61.95L120.757 64.7203H116.796L119.289 48.0989H125.55L128.043 64.7203H124.082L123.749 61.95H121.117ZM122.392 51.4232L121.478 58.9028H123.361L122.447 51.4232H122.392Z" fill="#BFBFBF"/>
<path d="M133.406 57.6562V64.7203H129.251V48.0989H133.406V54.3319H135.622V48.0989H139.778V64.7203H135.622V57.6562H133.406Z" fill="#BFBFBF"/>
<path d="M145.33 61.95L144.97 64.7203H141.008L143.502 48.0989H149.762L152.255 64.7203H148.294L147.962 61.95H145.33ZM146.604 51.4232L145.69 58.9028H147.574L146.66 51.4232H146.604Z" fill="#BFBFBF"/>
<path d="M159.162 51.1462V48.0989H169.689V51.1462H166.503V64.7203H162.348V51.1462H159.162Z" fill="#BFBFBF"/>
<path d="M175.122 58.9028V64.7203H170.966V48.0989H178.03C179.609 48.0989 181.216 48.8746 181.216 50.8692V54.7475C181.216 56.6589 180.884 57.7393 180.191 58.2933C179.554 58.8197 178.64 58.9028 177.061 58.9028H175.122ZM175.122 51.1462V55.8555H176.507C176.867 55.8555 177.061 55.4954 177.061 54.7475V52.2543C177.061 51.5063 176.867 51.1462 176.507 51.1462H175.122Z" fill="#BFBFBF"/>
<path d="M188.746 55.3015V48.0989H192.902V61.2575C192.902 63.6676 191.683 64.9696 187.777 64.9696C183.871 64.9696 182.652 63.6676 182.652 61.2575V59.7339H186.807V60.7034C186.807 61.7007 187.112 61.8115 187.777 61.8115C188.442 61.8115 188.746 61.7007 188.746 60.7034V58.3487H186.807C185.228 58.3487 184.314 58.2656 183.677 57.7393C182.984 57.1853 182.652 56.1049 182.652 54.1934V48.0989H186.807V54.1934C186.807 54.9414 187.001 55.3015 187.361 55.3015H188.746Z" fill="#BFBFBF"/>
<path d="M197.993 64.7203V67.4905H194.115V61.673H195.777V48.0989H206.303V61.673H207.966V67.4905H204.087V64.7203H197.993ZM202.148 61.673V51.4232H199.932V61.673H202.148Z" fill="#BFBFBF"/>
<path d="M213.125 61.95L212.764 64.7203H208.803L211.296 48.0989H217.557L220.05 64.7203H216.089L215.756 61.95H213.125ZM214.399 51.4232L213.485 58.9028H215.368L214.454 51.4232H214.399Z" fill="#BFBFBF"/>
<path d="M237.401 53.3346C237.401 54.415 237.151 55.4123 236.043 55.9387V55.9664C237.179 56.3265 237.456 57.5177 237.456 58.8751V61.95C237.456 63.9446 235.849 64.7203 234.27 64.7203H227.345V48.0989H234.215C235.794 48.0989 237.401 48.8746 237.401 50.8692V53.3346ZM231.361 51.1462V54.5812H232.747C233.079 54.5812 233.273 54.2765 233.301 53.6948V52.2543C233.301 51.5063 233.107 51.1462 232.747 51.1462H231.361ZM233.301 58.5427C233.273 57.9332 233.107 57.6285 232.747 57.6285H231.361V61.673H232.747C233.107 61.673 233.301 61.3129 233.301 60.5649V58.5427Z" fill="#BFBFBF"/>
<path d="M249.301 58.9028V64.7203H245.145V48.0989H252.21C253.789 48.0989 255.395 48.8746 255.395 50.8692V54.7475C255.395 56.6589 255.063 57.7393 254.37 58.2933C253.733 58.8197 252.819 58.9028 251.24 58.9028H249.301ZM249.301 51.1462V55.8555H250.686C251.046 55.8555 251.24 55.4954 251.24 54.7475V52.2543C251.24 51.5063 251.046 51.1462 250.686 51.1462H249.301Z" fill="#BFBFBF"/>
<path d="M256.831 51.5617C256.831 49.1516 258.05 47.8496 261.956 47.8496C265.862 47.8496 267.081 49.1516 267.081 51.5617V61.2575C267.081 63.6676 265.862 64.9696 261.956 64.9696C258.05 64.9696 256.831 63.6676 256.831 61.2575V51.5617ZM261.956 61.8115C262.621 61.8115 262.926 61.7007 262.926 60.7034V52.1157C262.926 51.1185 262.621 51.0077 261.956 51.0077C261.291 51.0077 260.986 51.1185 260.986 52.1157V60.7034C260.986 61.7007 261.291 61.8115 261.956 61.8115Z" fill="#BFBFBF"/>
<path d="M274.721 58.4873H278.876V61.2575C278.876 63.6676 277.657 64.9696 273.751 64.9696C269.845 64.9696 268.626 63.6676 268.626 61.2575V51.5617C268.626 49.1516 269.845 47.8496 273.751 47.8496C277.657 47.8496 278.876 49.1516 278.876 51.5617V54.2488H274.721V52.1157C274.721 51.1185 274.416 51.0077 273.751 51.0077C273.086 51.0077 272.781 51.1185 272.781 52.1157V60.7034C272.781 61.7007 273.086 61.8115 273.751 61.8115C274.416 61.8115 274.721 61.7007 274.721 60.7034V58.4873Z" fill="#BFBFBF"/>
<path d="M286.489 58.4873H290.644V61.2575C290.644 63.6676 289.425 64.9696 285.519 64.9696C281.613 64.9696 280.394 63.6676 280.394 61.2575V51.5617C280.394 49.1516 281.613 47.8496 285.519 47.8496C289.425 47.8496 290.644 49.1516 290.644 51.5617V54.2488H286.489V52.1157C286.489 51.1185 286.184 51.0077 285.519 51.0077C284.854 51.0077 284.549 51.1185 284.549 52.1157V60.7034C284.549 61.7007 284.854 61.8115 285.519 61.8115C286.184 61.8115 286.489 61.7007 286.489 60.7034V58.4873Z" fill="#BFBFBF"/>
<path d="M298.894 48.0989H302.772V64.7203H298.866L298.894 56.9082H298.866L296.096 64.7203H292.218V48.0989H296.124L296.096 55.717H296.124L298.894 48.0989Z" fill="#BFBFBF"/>
<path d="M311.122 48.0989H315V64.7203H311.094L311.122 56.9082H311.094L308.324 64.7203H304.445V48.0989H308.351L308.324 55.717H308.351L311.122 48.0989Z" fill="#BFBFBF"/>
<path d="M81.9104 20.8318C81.9104 17.2893 83.702 15.3755 89.4434 15.3755C95.1848 15.3755 96.9764 17.2893 96.9764 20.8318V35.0834C96.9764 38.626 95.1848 40.5398 89.4434 40.5398C83.702 40.5398 81.9104 38.626 81.9104 35.0834V20.8318ZM89.4434 35.8978C90.4207 35.8978 90.8686 35.7349 90.8686 34.2691V21.6462C90.8686 20.1803 90.4207 20.0174 89.4434 20.0174C88.4661 20.0174 88.0182 20.1803 88.0182 21.6462V34.2691C88.0182 35.7349 88.4661 35.8978 89.4434 35.8978Z" fill="white"/>
<path d="M105.518 29.79V40.1733H99.4106V15.742H105.518V24.9037H108.776V15.742H114.884V40.1733H108.776V29.79H105.518Z" fill="white"/>
<path d="M126.995 40.214C126.71 40.214 126.547 40.0511 126.506 39.7661C126.425 39.4811 126.384 39.0739 126.384 38.5445V33.2511C126.384 32.1517 125.977 31.6223 125.162 31.6223H123.534V40.1733H117.426V15.742H127.809C130.13 15.742 132.492 16.8821 132.492 19.8138V25.5145C132.492 26.9804 132.125 28.0798 131.433 28.772C131.27 28.9349 130.945 29.1385 130.415 29.3421V29.3828C130.904 29.5864 131.23 29.7493 131.433 29.9529C132.125 30.7265 132.492 31.9481 132.492 33.6583V38.9517C132.492 39.2775 132.614 40.0511 132.777 40.214H126.995ZM123.534 20.221V27.1433H125.57C126.099 27.1433 126.384 26.6139 126.384 25.5145V21.8498C126.384 20.7504 126.099 20.221 125.57 20.221H123.534Z" fill="white"/>
<path d="M140.824 36.1014L140.294 40.1733H134.472L138.136 15.742H147.339L151.003 40.1733H145.181L144.692 36.1014H140.824ZM142.697 20.6282L141.353 31.6223H144.122L142.778 20.6282H142.697Z" fill="white"/>
<path d="M158.561 28.6906L158.601 40.1733H152.86V15.742H158.561L162.632 26.9397H162.673L162.632 15.742H168.374V40.1733H162.673L158.601 28.6906H158.561Z" fill="white"/>
<path d="M176.616 36.1014L176.086 40.1733H170.263L173.928 15.742H183.131L186.795 40.1733H180.972L180.484 36.1014H176.616ZM178.489 20.6282L177.145 31.6223H179.914L178.57 20.6282H178.489Z" fill="white"/>
<path d="M186.253 20.221V15.742H201.726V20.221H197.043V40.1733H190.935V20.221H186.253Z" fill="white"/>
<path d="M213.254 40.214C212.969 40.214 212.806 40.0511 212.765 39.7661C212.684 39.4811 212.643 39.0739 212.643 38.5445V33.2511C212.643 32.1517 212.236 31.6223 211.421 31.6223H209.793V40.1733H203.685V15.742H214.068C216.389 15.742 218.751 16.8821 218.751 19.8138V25.5145C218.751 26.9804 218.384 28.0798 217.692 28.772C217.529 28.9349 217.203 29.1385 216.674 29.3421V29.3828C217.163 29.5864 217.488 29.7493 217.692 29.9529C218.384 30.7265 218.751 31.9481 218.751 33.6583V38.9517C218.751 39.2775 218.873 40.0511 219.036 40.214H213.254ZM209.793 20.221V27.1433H211.829C212.358 27.1433 212.643 26.6139 212.643 25.5145V21.8498C212.643 20.7504 212.358 20.221 211.829 20.221H209.793Z" fill="white"/>
<path d="M228.833 40.5398C223.092 40.5398 221.3 38.626 221.3 35.0834V15.742H227.408V34.0247C227.408 35.4906 227.856 35.6535 228.833 35.6535C229.811 35.6535 230.259 35.4906 230.259 34.0247V15.742H236.366V35.0834C236.366 38.626 234.575 40.5398 228.833 40.5398Z" fill="white"/>
<path d="M238.801 40.1733V15.742H249.184C251.505 15.742 253.867 16.8821 253.867 19.8138V36.1014C253.867 39.0332 251.505 40.1733 249.184 40.1733H238.801ZM244.908 20.221V35.6942H246.944C247.474 35.6942 247.759 35.1649 247.759 34.0655V21.8498C247.759 20.7504 247.474 20.221 246.944 20.221H244.908Z" fill="white"/>
<path d="M262 36.1014L261.47 40.1733H255.647L259.312 15.742H268.515L272.179 40.1733H266.357L265.868 36.1014H262ZM263.873 20.6282L262.529 31.6223H265.298L263.954 20.6282H263.873Z" fill="white"/>
<path d="M279.085 35.287V40.1733H273.792V35.287H279.085Z" fill="white"/>
<path d="M290.923 40.214C290.638 40.214 290.475 40.0511 290.435 39.7661C290.353 39.4811 290.313 39.0739 290.313 38.5445V33.2511C290.313 32.1517 289.905 31.6223 289.091 31.6223H287.462V40.1733H281.354V15.742H291.738C294.059 15.742 296.42 16.8821 296.42 19.8138V25.5145C296.42 26.9804 296.054 28.0798 295.362 28.772C295.199 28.9349 294.873 29.1385 294.344 29.3421V29.3828C294.832 29.5864 295.158 29.7493 295.362 29.9529C296.054 30.7265 296.42 31.9481 296.42 33.6583V38.9517C296.42 39.2775 296.543 40.0511 296.705 40.214H290.923ZM287.462 20.221V27.1433H289.498C290.028 27.1433 290.313 26.6139 290.313 25.5145V21.8498C290.313 20.7504 290.028 20.221 289.498 20.221H287.462Z" fill="white"/>
<path d="M306.503 40.5398C300.762 40.5398 298.97 38.626 298.97 35.0834V15.742H305.078V34.0247C305.078 35.4906 305.526 35.6535 306.503 35.6535C307.48 35.6535 307.928 35.4906 307.928 34.0247V15.742H314.036V35.0834C314.036 38.626 312.245 40.5398 306.503 40.5398Z" fill="white"/>
<g clip-path="url(#clip0_32_4)">
<path d="M24.699 15.1841H77.013V21.4649H24.699C13.936 21.4649 6.30334 29.1224 6.30334 41.2108C6.30334 49.7717 12.9069 58.6767 24.699 58.6767C36.4911 58.6767 43.0518 52.8691 43.0518 41.2108V34.8009H49.3123V41.2108C49.3123 54.3318 41.5939 64.7855 24.699 64.7855C15.1796 64.7855 0.0856951 57.2571 0.0856934 41.2108C0.0856917 29.0961 7.93272 15.1841 24.699 15.1841Z" fill="white"/>
<path d="M51.5421 64.6994V29.3805H24.6989C18.5243 29.3805 13.8375 33.2999 14.1076 41.2108C14.322 47.4916 20.5825 50.4087 24.6561 50.4169C29.6732 50.427 35.2476 47.4056 35.2476 41.2108V34.8869H41.0793V41.2108C41.0793 49.5996 36.9628 56.9989 24.6561 56.9989C15.7559 56.9989 7.88988 50.1399 7.88989 41.2108C7.8899 30.9292 15.0081 23.0996 24.6989 23.0996H57.8027V64.6994H51.5421Z" fill="#BFBFBF"/>
<path d="M59.3464 64.6994V23.0996H77.0131V29.3804H65.607V64.6994H59.3464Z" fill="#BFBFBF"/>
</g>
<defs>
<clipPath id="clip0_32_4">
<rect width="77.0989" height="49.7305" fill="white" transform="translate(0 15.1411)"/>
</clipPath>
</defs>
</svg>
