<svg width="60" height="60" viewBox="0 0 60 60" fill="none" xmlns="http://www.w3.org/2000/svg">
<rect width="60" height="60" rx="30" fill="#DCFCE7"/>
<path d="M30.0006 12.6831C20.4516 12.6831 12.6836 20.4511 12.6836 30.0001C12.6836 39.5491 20.4526 47.3171 30.0006 47.3171C39.5486 47.3171 47.3156 39.5481 47.3156 30.0001C47.3156 20.4521 39.5486 12.6831 30.0006 12.6831ZM30.0006 45.8171C21.2786 45.8171 14.1836 38.7211 14.1836 30.0001C14.1836 21.2791 21.2786 14.1831 30.0006 14.1831C38.7216 14.1831 45.8156 21.2791 45.8156 30.0001C45.8156 38.7211 38.7216 45.8171 30.0006 45.8171Z" fill="#00867A"/>
<path d="M36.4724 33.655L35.9044 33.299C35.863 33.272 35.8166 33.2539 35.7679 33.2456C35.7192 33.2373 35.6693 33.2392 35.6214 33.251C35.5735 33.2618 35.5282 33.2821 35.4882 33.3106C35.4482 33.3391 35.4143 33.3753 35.3884 33.417C34.8207 34.3304 34.029 35.0835 33.0885 35.6048C32.148 36.1262 31.0898 36.3986 30.0144 36.396C28.9325 36.3997 27.8679 36.1247 26.9232 35.5975C25.9784 35.0703 25.1854 34.3087 24.6204 33.386C24.5679 33.3016 24.4842 33.2414 24.3876 33.2186C24.2909 33.1957 24.1891 33.2121 24.1044 33.264L23.5324 33.617C23.4478 33.6693 23.3874 33.753 23.3646 33.8498C23.3417 33.9465 23.3582 34.0484 23.4104 34.133C24.1031 35.2614 25.0744 36.1927 26.2309 36.8373C27.3875 37.4819 28.6903 37.8183 30.0144 37.814C31.3302 37.8178 32.6251 37.4851 33.7762 36.8477C34.9273 36.2103 35.8963 35.2893 36.5914 34.172C36.6175 34.1303 36.6352 34.0838 36.6434 34.0352C36.6516 33.9866 36.6501 33.9369 36.639 33.8889C36.628 33.8409 36.6076 33.7955 36.579 33.7554C36.5504 33.7152 36.5142 33.6811 36.4724 33.655Z" fill="#00867A"/>
<path d="M25.2647 26.5599C25.8413 26.5599 26.3087 26.0925 26.3087 25.5159C26.3087 24.9393 25.8413 24.4719 25.2647 24.4719C24.6881 24.4719 24.2207 24.9393 24.2207 25.5159C24.2207 26.0925 24.6881 26.5599 25.2647 26.5599Z" fill="#00867A"/>
<path d="M34.4034 26.5599C34.98 26.5599 35.4474 26.0925 35.4474 25.5159C35.4474 24.9393 34.98 24.4719 34.4034 24.4719C33.8268 24.4719 33.3594 24.9393 33.3594 25.5159C33.3594 26.0925 33.8268 26.5599 34.4034 26.5599Z" fill="#00867A"/>
</svg>
