<svg viewBox="0 0 20 20" fill="none" xmlns="http://www.w3.org/2000/svg">
<path d="M8.33333 13.3335H13.3333M16.6667 5.00016V15.0002C16.6667 15.4422 16.4911 15.8661 16.1785 16.1787C15.866 16.4912 15.442 16.6668 15 16.6668H6.66667C6.22464 16.6668 5.80072 16.4912 5.48816 16.1787C5.17559 15.8661 5 15.4422 5 15.0002V5.00016C5 4.55814 5.17559 4.13421 5.48816 3.82165C5.80072 3.50909 6.22464 3.3335 6.66667 3.3335H15C15.442 3.3335 15.866 3.50909 16.1785 3.82165C16.4911 4.13421 16.6667 4.55814 16.6667 5.00016Z" stroke="currentColor" stroke-width="0.666667" stroke-linecap="round" stroke-linejoin="round"/>
<path d="M3.33325 6.66699H5.83325M3.33325 10.0003H5.83325M3.33325 13.3337H5.83325M9.16659 9.16699C9.16659 9.60902 9.34218 10.0329 9.65474 10.3455C9.9673 10.6581 10.3912 10.8337 10.8333 10.8337C11.2753 10.8337 11.6992 10.6581 12.0118 10.3455C12.3243 10.0329 12.4999 9.60902 12.4999 9.16699C12.4999 8.72496 12.3243 8.30104 12.0118 7.98848C11.6992 7.67592 11.2753 7.50033 10.8333 7.50033C10.3912 7.50033 9.9673 7.67592 9.65474 7.98848C9.34218 8.30104 9.16659 8.72496 9.16659 9.16699Z" stroke="currentColor" stroke-width="0.666667" stroke-linecap="round" stroke-linejoin="round"/>
</svg>
