<svg viewBox="0 0 30 30" fill="none" xmlns="http://www.w3.org/2000/svg">
<path d="M15.0004 15.8849L8.44291 22.4424C8.32624 22.5591 8.18291 22.6216 8.01291 22.6299C7.84291 22.6383 7.69124 22.5758 7.55791 22.4424C7.42458 22.3091 7.35791 22.1616 7.35791 21.9999C7.35791 21.8383 7.42458 21.6908 7.55791 21.5574L14.1154 14.9999L7.55791 8.44242C7.44124 8.32576 7.37874 8.18242 7.37041 8.01242C7.36208 7.84242 7.42458 7.69076 7.55791 7.55742C7.69124 7.42409 7.83874 7.35742 8.00041 7.35742C8.16208 7.35742 8.30958 7.42409 8.44291 7.55742L15.0004 14.1149L21.5579 7.55742C21.6746 7.44076 21.8183 7.37825 21.9892 7.36992C22.1583 7.36159 22.3096 7.42409 22.4429 7.55742C22.5762 7.69076 22.6429 7.83826 22.6429 7.99992C22.6429 8.16159 22.5762 8.30909 22.4429 8.44242L15.8854 14.9999L22.4429 21.5574C22.5596 21.6741 22.6221 21.8178 22.6304 21.9887C22.6387 22.1578 22.5762 22.3091 22.4429 22.4424C22.3096 22.5758 22.1621 22.6424 22.0004 22.6424C21.8387 22.6424 21.6912 22.5758 21.5579 22.4424L15.0004 15.8849Z" fill="currentColor"/>
</svg>
