<svg viewBox="0 0 30 31" fill="none" xmlns="http://www.w3.org/2000/svg">
<path d="M15 12.375V3M15 12.375L7.5 14.25M15 12.375L22.5 10.5M7.5 14.25L12.5 23M7.5 14.25L2.5 23M22.5 10.5L17.5 19.25M22.5 10.5L27.5 19.25" stroke="currentColor" stroke-width="1.2" stroke-linecap="round" stroke-linejoin="round"/>
<path d="M7.5 28C8.82608 28 10.0979 27.4732 11.0355 26.5355C11.9732 25.5979 12.5 24.3261 12.5 23H2.5C2.5 24.3261 3.02678 25.5979 3.96447 26.5355C4.90215 27.4732 6.17392 28 7.5 28ZM22.5 24.25C23.8261 24.25 25.0979 23.7232 26.0355 22.7855C26.9732 21.8479 27.5 20.5761 27.5 19.25H17.5C17.5 20.5761 18.0268 21.8479 18.9645 22.7855C19.9021 23.7232 21.1739 24.25 22.5 24.25Z" stroke="currentColor" stroke-width="1.2" stroke-linecap="round" stroke-linejoin="round"/>
</svg>
