<svg viewBox="0 0 20 20" fill="none" xmlns="http://www.w3.org/2000/svg">
<path d="M10.0005 1.34149C5.22604 1.34149 1.34204 5.22549 1.34204 9.99999C1.34204 14.7745 5.22654 18.6585 10.0005 18.6585C14.7745 18.6585 18.658 14.774 18.658 9.99999C18.658 5.22599 14.7745 1.34149 10.0005 1.34149ZM10.0005 17.9085C5.63954 17.9085 2.09204 14.3605 2.09204 9.99999C2.09204 5.63949 5.63954 2.09149 10.0005 2.09149C14.361 2.09149 17.908 5.63949 17.908 9.99999C17.908 14.3605 14.361 17.9085 10.0005 17.9085Z" fill="currentColor"/>
<path d="M13.236 11.8275L12.952 11.6495C12.9313 11.636 12.908 11.6269 12.8837 11.6228C12.8594 11.6187 12.8344 11.6196 12.8105 11.6255C12.7865 11.6309 12.7639 11.641 12.7439 11.6553C12.7239 11.6695 12.7069 11.6876 12.694 11.7085C12.4101 12.1652 12.0143 12.5417 11.544 12.8024C11.0737 13.0631 10.5446 13.1993 10.007 13.198C9.46601 13.1998 8.93372 13.0623 8.46134 12.7987C7.98897 12.5351 7.59244 12.1543 7.30995 11.693C7.28373 11.6508 7.24188 11.6207 7.19353 11.6093C7.14519 11.5979 7.09429 11.606 7.05195 11.632L6.76595 11.8085C6.72366 11.8346 6.69347 11.8765 6.68203 11.9249C6.67059 11.9733 6.67884 12.0242 6.70495 12.0665C7.05131 12.6307 7.53696 13.0963 8.11522 13.4187C8.69349 13.741 9.34493 13.9091 10.007 13.907C10.6648 13.9089 11.3123 13.7426 11.8878 13.4239C12.4634 13.1052 12.9479 12.6446 13.2955 12.086C13.3085 12.0651 13.3174 12.0419 13.3214 12.0176C13.3255 11.9933 13.3248 11.9684 13.3193 11.9444C13.3137 11.9204 13.3035 11.8977 13.2892 11.8777C13.2749 11.8576 13.2568 11.8406 13.236 11.8275Z" fill="currentColor"/>
<path d="M7.6326 8.28002C7.92089 8.28002 8.1546 8.04632 8.1546 7.75802C8.1546 7.46973 7.92089 7.23602 7.6326 7.23602C7.3443 7.23602 7.1106 7.46973 7.1106 7.75802C7.1106 8.04632 7.3443 8.28002 7.6326 8.28002Z" fill="currentColor"/>
<path d="M12.2014 8.28002C12.4897 8.28002 12.7234 8.04632 12.7234 7.75802C12.7234 7.46973 12.4897 7.23602 12.2014 7.23602C11.9132 7.23602 11.6794 7.46973 11.6794 7.75802C11.6794 8.04632 11.9132 8.28002 12.2014 8.28002Z" fill="currentColor"/>
</svg>
