<svg viewBox="0 0 20 20" fill="none" xmlns="http://www.w3.org/2000/svg">
<path d="M5.48583 6.0317C7.99167 6.47336 9.485 7.39753 10 7.92836C10.515 7.39753 12.0083 6.47336 14.515 6.0317C15.7842 5.80753 16.4192 5.69586 16.9592 6.12503C17.5 6.55336 17.5 7.25003 17.5 8.64336V13.6492C17.5 14.9234 17.5 15.56 17.1533 15.9575C16.8058 16.355 16.0425 16.49 14.515 16.7592C13.1525 16.9992 12.09 17.3817 11.3208 17.7659C10.5633 18.1442 10.185 18.3334 10 18.3334M10 18.3334C9.815 18.3334 9.43583 18.1442 8.67917 17.7667C7.91 17.3817 6.8475 16.9992 5.48583 16.7584C3.9575 16.49 3.19417 16.355 2.84667 15.9575C2.49917 15.56 2.5 14.9234 2.5 13.6492V8.64336C2.5 7.25003 2.5 6.55336 3.04083 6.12503C3.58083 5.69586 4.21583 5.80836 5.485 6.0317M10 18.3334V7.50003M7.08333 2.5492C7.94709 1.97253 8.9627 1.66545 10.0013 1.66694C11.0398 1.66842 12.0546 1.9784 12.9167 2.55753M11.3517 4.58336C10.9445 4.33602 10.4776 4.20452 10.0012 4.20305C9.52476 4.20158 9.05701 4.3302 8.64833 4.57503" stroke="currentColor" stroke-width="0.8" stroke-linecap="round" stroke-linejoin="round"/>
</svg>
