<svg viewBox="0 0 17 17" fill="none" xmlns="http://www.w3.org/2000/svg">
<path d="M2.65625 8.49999C2.65625 8.35909 2.71222 8.22397 2.81185 8.12434C2.91148 8.02471 3.0466 7.96874 3.1875 7.96874H7.96875C8.10965 7.96874 8.24477 8.02471 8.3444 8.12434C8.44403 8.22397 8.5 8.35909 8.5 8.49999C8.5 8.64089 8.44403 8.77601 8.3444 8.87564C8.24477 8.97527 8.10965 9.03124 7.96875 9.03124H3.1875C3.0466 9.03124 2.91148 8.97527 2.81185 8.87564C2.71222 8.77601 2.65625 8.64089 2.65625 8.49999ZM3.1875 4.78124H6.90625C7.04715 4.78124 7.18227 4.72527 7.2819 4.62564C7.38153 4.52601 7.4375 4.39089 7.4375 4.24999C7.4375 4.10909 7.38153 3.97397 7.2819 3.87434C7.18227 3.77471 7.04715 3.71874 6.90625 3.71874H3.1875C3.0466 3.71874 2.91148 3.77471 2.81185 3.87434C2.71222 3.97397 2.65625 4.10909 2.65625 4.24999C2.65625 4.39089 2.71222 4.52601 2.81185 4.62564C2.91148 4.72527 3.0466 4.78124 3.1875 4.78124ZM12.2188 12.2187H3.1875C3.0466 12.2187 2.91148 12.2747 2.81185 12.3743C2.71222 12.474 2.65625 12.6091 2.65625 12.75C2.65625 12.8909 2.71222 13.026 2.81185 13.1256C2.91148 13.2253 3.0466 13.2812 3.1875 13.2812H12.2188C12.3596 13.2812 12.4948 13.2253 12.5944 13.1256C12.694 13.026 12.75 12.8909 12.75 12.75C12.75 12.6091 12.694 12.474 12.5944 12.3743C12.4948 12.2747 12.3596 12.2187 12.2188 12.2187ZM15.2509 5.46788L12.5946 2.81163C12.5453 2.76224 12.4867 2.72305 12.4222 2.69632C12.3577 2.66958 12.2886 2.65582 12.2188 2.65582C12.1489 2.65582 12.0798 2.66958 12.0153 2.69632C11.9508 2.72305 11.8922 2.76224 11.8429 2.81163L9.18664 5.46788C9.08696 5.56757 9.03095 5.70277 9.03095 5.84374C9.03095 5.98472 9.08696 6.11992 9.18664 6.2196C9.28632 6.31928 9.42153 6.37529 9.5625 6.37529C9.70347 6.37529 9.83868 6.31928 9.93836 6.2196L11.6875 4.4698V9.56249C11.6875 9.70339 11.7435 9.83851 11.8431 9.93814C11.9427 10.0378 12.0779 10.0937 12.2188 10.0937C12.3596 10.0937 12.4948 10.0378 12.5944 9.93814C12.694 9.83851 12.75 9.70339 12.75 9.56249V4.4698L14.4991 6.2196C14.5485 6.26896 14.6071 6.30811 14.6716 6.33482C14.7361 6.36154 14.8052 6.37529 14.875 6.37529C14.9448 6.37529 15.0139 6.36154 15.0784 6.33482C15.1429 6.30811 15.2015 6.26896 15.2509 6.2196C15.3002 6.17024 15.3394 6.11164 15.3661 6.04715C15.3928 5.98266 15.4065 5.91354 15.4065 5.84374C15.4065 5.77394 15.3928 5.70482 15.3661 5.64033C15.3394 5.57584 15.3002 5.51724 15.2509 5.46788Z" fill="currentColor"/>
</svg>
