<svg viewBox="0 0 24 25" fill="none" xmlns="http://www.w3.org/2000/svg">
<path d="M2 6.495C2 5.945 2.446 5.5 2.995 5.5H11.005C11.2689 5.5 11.522 5.60483 11.7086 5.79143C11.8952 5.97803 12 6.23111 12 6.495C12 6.75889 11.8952 7.01197 11.7086 7.19857C11.522 7.38517 11.2689 7.49 11.005 7.49H2.995C2.73111 7.49 2.47803 7.38517 2.29143 7.19857C2.10483 7.01197 2 6.75889 2 6.495ZM2 12.5C2 11.95 2.446 11.505 2.995 11.505H21.005C21.2689 11.505 21.522 11.6098 21.7086 11.7964C21.8952 11.983 22 12.2361 22 12.5C22 12.7639 21.8952 13.017 21.7086 13.2036C21.522 13.3902 21.2689 13.495 21.005 13.495H2.995C2.73111 13.495 2.47803 13.3902 2.29143 13.2036C2.10483 13.017 2 12.7639 2 12.5ZM2.995 17.51C2.73111 17.51 2.47803 17.6148 2.29143 17.8014C2.10483 17.988 2 18.2411 2 18.505C2 18.7689 2.10483 19.022 2.29143 19.2086C2.47803 19.3952 2.73111 19.5 2.995 19.5H15.005C15.2689 19.5 15.522 19.3952 15.7086 19.2086C15.8952 19.022 16 18.7689 16 18.505C16 18.2411 15.8952 17.988 15.7086 17.8014C15.522 17.6148 15.2689 17.51 15.005 17.51H2.995Z" fill="currentColor"/>
</svg>
