<svg viewBox="0 0 17 17" fill="none" xmlns="http://www.w3.org/2000/svg">
<path d="M7.2679 4.38366L7.26786 4.38372L7.04931 4.77551C7.04927 4.77558 7.04923 4.77565 7.04919 4.77572C7.0346 4.8019 7.02017 4.82791 7.00585 4.85373C6.80956 5.20752 6.63352 5.52481 6.34868 5.74073C6.05988 5.95964 5.70913 6.03827 5.32339 6.12475C5.29698 6.13067 5.2704 6.13662 5.24368 6.14266C5.24361 6.14268 5.24354 6.14269 5.24348 6.14271L4.81968 6.23867L4.81946 6.23871C3.98014 6.42841 3.41708 6.55748 3.03335 6.70872C2.66026 6.85577 2.60485 6.96723 2.58391 7.0347C2.5609 7.10887 2.54698 7.24507 2.77051 7.60019C2.9979 7.96146 3.38316 8.41426 3.95435 9.08185L3.95462 9.08217L4.24357 9.42039C4.24366 9.42049 4.24374 9.42059 4.24383 9.42069C4.26175 9.44162 4.27957 9.46237 4.29726 9.48296C4.56172 9.79088 4.79659 10.0643 4.90305 10.4108C5.00949 10.7529 4.97417 11.1124 4.93374 11.5237C4.93103 11.5513 4.92831 11.579 4.92559 11.6071L4.92555 11.6075L4.8816 12.0577C4.79549 12.9484 4.73826 13.5539 4.75768 13.9882C4.77703 14.4209 4.86775 14.5153 4.91606 14.552C4.9541 14.5808 5.04704 14.6427 5.43552 14.5314C5.83099 14.418 6.35941 14.1766 7.14524 13.8149L7.14547 13.8148L7.54193 13.6326C7.54206 13.6325 7.5422 13.6324 7.54234 13.6324C7.56674 13.6211 7.59099 13.6098 7.6151 13.5987C7.97538 13.4315 8.30515 13.2786 8.66682 13.2786C9.0285 13.2786 9.35826 13.4315 9.71853 13.5987C9.7425 13.6098 9.7666 13.621 9.79086 13.6322C9.79114 13.6323 9.79143 13.6324 9.79172 13.6326L10.1885 13.8147L10.1892 13.815C10.9747 14.1767 11.5028 14.418 11.8982 14.5313C12.2863 14.6425 12.3796 14.5807 12.4182 14.5514C12.4658 14.5152 12.5567 14.4216 12.576 13.9882C12.5954 13.554 12.5382 12.9484 12.452 12.0577L12.4081 11.6068L12.4081 11.6065C12.4054 11.5787 12.4027 11.5513 12.4 11.524C12.3594 11.1111 12.324 10.7516 12.4304 10.4087L12.4305 10.4083C12.5375 10.0642 12.7712 9.79175 13.0351 9.48387C13.0532 9.46279 13.0714 9.44155 13.0897 9.42011L13.0901 9.41974L13.3792 9.08196C13.3793 9.08189 13.3793 9.08181 13.3794 9.08174C13.9505 8.41392 14.3357 7.96098 14.5631 7.59969C14.7868 7.24439 14.7727 7.10849 14.7498 7.03486C14.7285 6.96685 14.6724 6.8556 14.3004 6.70896C13.9168 6.55778 13.3541 6.42873 12.5146 6.23867L12.091 6.14275L7.2679 4.38366ZM7.2679 4.38366C7.69957 3.60958 7.99293 3.0864 8.25149 2.74878C8.50974 2.41158 8.62517 2.40477 8.66682 2.40477C8.70848 2.40477 8.82391 2.41158 9.08215 2.74878C9.34071 3.0864 9.63408 3.60958 10.0658 4.38366L10.0658 4.38372M7.2679 4.38366L10.0658 4.38372M10.0658 4.38372L10.2843 4.77551M10.0658 4.38372L10.2843 4.77551M10.2843 4.77551C10.2983 4.80054 10.3121 4.8254 10.3258 4.85008C10.5234 5.20612 10.6997 5.52374 10.9842 5.74014C11.2726 5.95955 11.6246 6.03832 12.0101 6.12459C12.0368 6.13056 12.0636 6.13657 12.0906 6.14266L10.2843 4.77551Z" fill="white" stroke="#FFCD0E" stroke-width="1.14286"/>
<path d="M5.23689 6.21428L6.95117 5.07144L8.66546 2.21429V13.359L4.66546 14.7857V10.7857L2.95117 7.92856V6.78571L5.23689 6.21428Z" fill="#FFCD0E"/>
</svg>
