<svg viewBox="0 0 17 17" fill="none" xmlns="http://www.w3.org/2000/svg">
<path d="M6.76882 4.10534C7.61349 2.59068 8.03549 1.83334 8.66682 1.83334C9.29816 1.83334 9.72016 2.59068 10.5648 4.10534L10.7835 4.49734C11.0235 4.92801 11.1435 5.14334 11.3302 5.28534C11.5168 5.42734 11.7502 5.48001 12.2168 5.58534L12.6408 5.68134C14.2808 6.05268 15.1002 6.23801 15.2955 6.86534C15.4902 7.49201 14.9315 8.14601 13.8135 9.45334L13.5242 9.79134C13.2068 10.1627 13.0475 10.3487 12.9762 10.578C12.9048 10.808 12.9288 11.056 12.9768 11.5513L13.0208 12.0027C13.1895 13.7473 13.2742 14.6193 12.7635 15.0067C12.2528 15.394 11.4848 15.0407 9.95016 14.334L9.55216 14.1513C9.11616 13.95 8.89816 13.85 8.66682 13.85C8.43549 13.85 8.21749 13.95 7.78149 14.1513L7.38416 14.334C5.84882 15.0407 5.08082 15.394 4.57082 15.0073C4.05949 14.6193 4.14416 13.7473 4.31282 12.0027L4.35682 11.552C4.40482 11.056 4.42882 10.808 4.35682 10.5787C4.28616 10.3487 4.12682 10.1627 3.80949 9.79201L3.52016 9.45334C2.40216 8.14668 1.84349 7.49268 2.03816 6.86534C2.23282 6.23801 3.05349 6.05201 4.69349 5.68134L5.11749 5.58534C5.58349 5.48001 5.81616 5.42734 6.00349 5.28534C6.19082 5.14334 6.31016 4.92801 6.55016 4.49734L6.76882 4.10534Z" fill="#FFCD0E"/>
</svg>
