<svg viewBox="0 0 20 20" fill="none" xmlns="http://www.w3.org/2000/svg">
<path d="M2.52488 10.8983C2.39069 10.6177 2.32104 10.3106 2.32104 9.99956C2.32104 9.68852 2.39069 9.38142 2.52488 9.10081C2.64154 8.85581 2.84154 8.62081 3.24154 8.15081C3.40154 7.96331 3.48154 7.86998 3.54821 7.76998C3.70159 7.54122 3.80809 7.28432 3.86154 7.01414C3.88488 6.89581 3.89488 6.77331 3.91404 6.52831C3.96321 5.91331 3.98738 5.60581 4.07821 5.34831C4.18195 5.05513 4.35 4.78889 4.57005 4.56913C4.7901 4.34937 5.05656 4.18166 5.34988 4.07831C5.60654 3.98748 5.91404 3.96248 6.52988 3.91414C6.77488 3.89414 6.89654 3.88414 7.01488 3.86081C7.28535 3.80746 7.54254 3.70096 7.77154 3.54748C7.87154 3.48081 7.96488 3.40164 8.15154 3.24164C8.62154 2.84164 8.85654 2.64164 9.10154 2.52414C9.38215 2.38996 9.68925 2.32031 10.0003 2.32031C10.3113 2.32031 10.6184 2.38996 10.899 2.52414C11.1449 2.64081 11.3799 2.84081 11.849 3.24164C12.0365 3.40164 12.1299 3.48081 12.2299 3.54748C12.4589 3.70096 12.7161 3.80746 12.9865 3.86081C13.104 3.88414 13.2265 3.89414 13.4715 3.91414C14.0874 3.96248 14.3949 3.98748 14.6515 4.07831C14.9447 4.18177 15.211 4.34952 15.4309 4.56928C15.6508 4.78903 15.8187 5.05522 15.9224 5.34831M4.07821 14.6508C4.18186 14.9439 4.34979 15.2101 4.56969 15.4298C4.78959 15.6496 5.05588 15.8174 5.34904 15.9208C5.60571 16.0125 5.91321 16.0366 6.52904 16.085C6.77404 16.105 6.89571 16.115 7.01404 16.1383C7.28451 16.1917 7.5417 16.2982 7.77071 16.4516C7.87071 16.5183 7.96404 16.5975 8.15071 16.7575C8.62071 17.1575 8.85571 17.3575 9.10071 17.475C9.38132 17.6092 9.68842 17.6788 9.99946 17.6788C10.3105 17.6788 10.6176 17.6092 10.8982 17.475C11.144 17.3583 11.379 17.1583 11.8482 16.7575C11.9691 16.6482 12.0962 16.5461 12.229 16.4516C12.458 16.2982 12.7152 16.1917 12.9857 16.1383C13.1032 16.115 13.2257 16.105 13.4707 16.085C14.0865 16.0366 14.394 16.0116 14.6507 15.9208C14.9439 15.8174 15.2102 15.6496 15.4301 15.4298C15.65 15.2101 15.8179 14.9439 15.9215 14.6508C16.0124 14.3941 16.0365 14.0858 16.0857 13.4708C16.1049 13.2258 16.1149 13.1033 16.1382 12.985C16.1915 12.715 16.2982 12.4575 16.4515 12.2291C16.5182 12.1291 16.5982 12.0358 16.7574 11.8483C17.1574 11.3783 17.3582 11.1433 17.4757 10.8983C17.6099 10.6177 17.6795 10.3106 17.6795 9.99956C17.6795 9.68852 17.6099 9.38142 17.4757 9.10081M7.49988 12.5L12.4999 7.49998" stroke="currentColor" stroke-width="0.8" stroke-linecap="round"/>
<path d="M12.9166 12.0833C12.9166 12.3043 12.8288 12.5163 12.6725 12.6726C12.5162 12.8288 12.3043 12.9166 12.0833 12.9166C11.8622 12.9166 11.6503 12.8288 11.494 12.6726C11.3377 12.5163 11.2499 12.3043 11.2499 12.0833C11.2499 11.8623 11.3377 11.6503 11.494 11.4941C11.6503 11.3378 11.8622 11.25 12.0833 11.25C12.3043 11.25 12.5162 11.3378 12.6725 11.4941C12.8288 11.6503 12.9166 11.8623 12.9166 12.0833ZM8.74992 7.91665C8.74992 8.13766 8.66212 8.34962 8.50584 8.5059C8.34956 8.66218 8.1376 8.74998 7.91659 8.74998C7.69557 8.74998 7.48361 8.66218 7.32733 8.5059C7.17105 8.34962 7.08325 8.13766 7.08325 7.91665C7.08325 7.69563 7.17105 7.48367 7.32733 7.32739C7.48361 7.17111 7.69557 7.08331 7.91659 7.08331C8.1376 7.08331 8.34956 7.17111 8.50584 7.32739C8.66212 7.48367 8.74992 7.69563 8.74992 7.91665Z" fill="currentColor"/>
</svg>
