<svg viewBox="0 0 17 17" fill="none" xmlns="http://www.w3.org/2000/svg">
<path d="M8.5 8.5C8.5 8.6409 8.44403 8.77602 8.3444 8.87565C8.24477 8.97528 8.10965 9.03125 7.96875 9.03125H3.1875C3.0466 9.03125 2.91148 8.97528 2.81185 8.87565C2.71222 8.77602 2.65625 8.6409 2.65625 8.5C2.65625 8.3591 2.71222 8.22398 2.81185 8.12435C2.91148 8.02472 3.0466 7.96875 3.1875 7.96875H7.96875C8.10965 7.96875 8.24477 8.02472 8.3444 8.12435C8.44403 8.22398 8.5 8.3591 8.5 8.5ZM3.1875 4.78125H12.2188C12.3596 4.78125 12.4948 4.72528 12.5944 4.62565C12.694 4.52602 12.75 4.3909 12.75 4.25C12.75 4.1091 12.694 3.97398 12.5944 3.87435C12.4948 3.77472 12.3596 3.71875 12.2188 3.71875H3.1875C3.0466 3.71875 2.91148 3.77472 2.81185 3.87435C2.71222 3.97398 2.65625 4.1091 2.65625 4.25C2.65625 4.3909 2.71222 4.52602 2.81185 4.62565C2.91148 4.72528 3.0466 4.78125 3.1875 4.78125ZM6.90625 12.2188H3.1875C3.0466 12.2188 2.91148 12.2747 2.81185 12.3743C2.71222 12.474 2.65625 12.6091 2.65625 12.75C2.65625 12.8909 2.71222 13.026 2.81185 13.1257C2.91148 13.2253 3.0466 13.2812 3.1875 13.2812H6.90625C7.04715 13.2812 7.18227 13.2253 7.2819 13.1257C7.38153 13.026 7.4375 12.8909 7.4375 12.75C7.4375 12.6091 7.38153 12.474 7.2819 12.3743C7.18227 12.2747 7.04715 12.2188 6.90625 12.2188ZM15.2509 10.7804C15.2015 10.731 15.1429 10.6918 15.0784 10.6651C15.0139 10.6383 14.9448 10.6246 14.875 10.6246C14.8052 10.6246 14.7361 10.6383 14.6716 10.6651C14.6071 10.6918 14.5485 10.731 14.4991 10.7804L12.75 12.5302V7.4375C12.75 7.2966 12.694 7.16148 12.5944 7.06185C12.4948 6.96222 12.3596 6.90625 12.2188 6.90625C12.0779 6.90625 11.9427 6.96222 11.8431 7.06185C11.7435 7.16148 11.6875 7.2966 11.6875 7.4375V12.5302L9.93836 10.7804C9.83868 10.6807 9.70347 10.6247 9.5625 10.6247C9.42153 10.6247 9.28632 10.6807 9.18664 10.7804C9.08696 10.8801 9.03095 11.0153 9.03095 11.1562C9.03095 11.2972 9.08696 11.4324 9.18664 11.5321L11.8429 14.1884C11.8922 14.2378 11.9508 14.2769 12.0153 14.3037C12.0798 14.3304 12.1489 14.3442 12.2188 14.3442C12.2886 14.3442 12.3577 14.3304 12.4222 14.3037C12.4867 14.2769 12.5453 14.2378 12.5946 14.1884L15.2509 11.5321C15.3003 11.4828 15.3394 11.4242 15.3662 11.3597C15.3929 11.2952 15.4067 11.2261 15.4067 11.1562C15.4067 11.0864 15.3929 11.0173 15.3662 10.9528C15.3394 10.8883 15.3003 10.8297 15.2509 10.7804Z" fill="currentColor"/>
</svg>
