<svg viewBox="0 0 21 22" fill="none" xmlns="http://www.w3.org/2000/svg">
<path d="M15.5006 5.75L14.8332 16.2613C14.7748 17.1819 14.7456 17.6422 14.5562 17.9912C14.3895 18.2985 14.138 18.5456 13.8349 18.6998C13.4907 18.875 13.0512 18.875 12.1725 18.875H8.82879C7.95004 18.875 7.51067 18.875 7.16639 18.6998C6.86329 18.5456 6.61181 18.2985 6.44508 17.9912C6.25571 17.6422 6.22648 17.1819 6.16803 16.2613L5.50065 5.75M3.83398 5.75H17.1673M13.834 5.75L13.6085 5.03956C13.3899 4.35109 13.2806 4.00686 13.0779 3.75236C12.8989 3.52761 12.6691 3.35366 12.4094 3.24643C12.1153 3.125 11.7698 3.125 11.0787 3.125H9.92265C9.23148 3.125 8.88598 3.125 8.59191 3.24643C8.33225 3.35366 8.10238 3.52761 7.92339 3.75236C7.72069 4.00686 7.61142 4.35109 7.39285 5.03956L7.16732 5.75" stroke="currentColor" stroke-width="0.85" stroke-linecap="round" stroke-linejoin="round"/>
</svg>
