<svg width="240" height="230" viewBox="0 0 240 230" fill="none" xmlns="http://www.w3.org/2000/svg">
<path d="M211.358 38.1511C211.358 38.1511 197.198 10.6299 165.929 6.55244C134.66 2.47501 112.831 22.3512 89.8219 32.5448C77.7721 37.8828 64.0092 35.8094 51.2173 38.3932C10.3149 46.6547 -5.09275 98.4146 11.9446 127.85C26.6942 153.332 52.6529 166.583 92.1816 169.642C131.71 172.7 159.44 176.267 194.838 151.294C230.237 126.321 227.878 74.3364 211.358 38.1511Z" fill="#3D4B88"/>
<path opacity="0.8" d="M211.358 38.1511C211.358 38.1511 197.198 10.6299 165.929 6.55244C134.66 2.47501 112.831 22.3512 89.8219 32.5448C77.7721 37.8828 64.0092 35.8094 51.2173 38.3932C10.3149 46.6547 -5.09275 98.4146 11.9446 127.85C26.6942 153.332 52.6529 166.583 92.1816 169.642C131.71 172.7 159.44 176.267 194.838 151.294C230.237 126.321 227.878 74.3364 211.358 38.1511Z" fill="white"/>
<path d="M178.211 61.3562L172.129 86.7326C172.129 86.7326 174.226 89.6687 175.065 90.5076C175.904 91.3465 177.791 91.3465 178.42 91.3465C179.05 91.3465 202.748 91.766 202.748 91.766L207.41 60.727" stroke="#263238" stroke-width="0.579345" stroke-miterlimit="10" stroke-linecap="round" stroke-linejoin="round"/>
<path d="M183.29 56.5672L181.356 56.5325" stroke="#263238" stroke-width="0.579345" stroke-miterlimit="10" stroke-linecap="round" stroke-linejoin="round"/>
<path d="M173.387 87.1515L198.975 87.0658L204.426 56.952L185.66 56.6108" stroke="#263238" stroke-width="0.579345" stroke-miterlimit="10" stroke-linecap="round" stroke-linejoin="round"/>
<path d="M174.855 87.3612L176.952 89.6682L201.49 90.2973L205.93 63.3902L204.006 60.727" stroke="#263238" stroke-width="0.579345" stroke-miterlimit="10" stroke-linecap="round" stroke-linejoin="round"/>
<path d="M179.147 88.6937H182.698C182.698 88.6937 182.106 91.5052 181.81 94.1685C181.514 96.8323 181.366 100.235 181.366 100.235L179.295 96.3879L176.779 99.6433L179.147 88.6937Z" fill="#263238"/>
<path d="M29.472 94.2525L44.5952 88.1601C44.5952 88.1601 45.331 86.0292 45.4538 85.2981C45.5772 84.567 44.8936 83.6058 44.6659 83.2855C44.4382 82.9651 36.0696 70.7467 36.0696 70.7467L18.5774 79.613" stroke="#263238" stroke-width="0.579345" stroke-miterlimit="10" stroke-linecap="round" stroke-linejoin="round"/>
<path d="M25.1948 93.4001L25.8773 94.3971" stroke="#263238" stroke-width="0.579345" stroke-miterlimit="10" stroke-linecap="round" stroke-linejoin="round"/>
<path d="M44.3537 87.3669L35.0436 74.3693L17.7368 82.4992L24.3587 92.1778" stroke="#263238" stroke-width="0.579345" stroke-miterlimit="10" stroke-linecap="round" stroke-linejoin="round"/>
<path d="M43.9283 86.5436L44.3437 84.6404L35.7787 71.9186L20.4701 79.4014L19.8108 81.3457" stroke="#263238" stroke-width="0.579345" stroke-miterlimit="10" stroke-linecap="round" stroke-linejoin="round"/>
<path d="M43.053 83.8758L41.7668 82.0677C41.7668 82.0677 43.4128 81.351 44.8762 80.537C46.3396 79.7231 48.1263 78.5661 48.1263 78.5661L46.9178 81.0144L49.486 81.1164L43.053 83.8758Z" fill="#263238"/>
<path d="M29.1048 118.009L27.9067 118.608L38.507 138.886L56.2506 119.99L77.9117 113.308L67.0815 96.0247L66.1296 96.0983" stroke="#263238" stroke-width="0.579345" stroke-miterlimit="10" stroke-linecap="round" stroke-linejoin="round"/>
<path d="M44.9592 100.864L54.4071 117.916C54.4071 117.916 50.259 116.995 49.3373 120.912C48.4156 124.83 44.2674 129.899 42.424 132.204C40.5805 134.508 38.737 136.121 38.737 136.121L28.5979 116.764C28.5979 116.764 33.4372 112.847 35.7412 107.316C38.0459 101.786 41.7334 100.173 44.9592 100.864Z" stroke="#263238" stroke-width="0.579345" stroke-miterlimit="10" stroke-linecap="round" stroke-linejoin="round"/>
<path d="M54.4071 117.916C54.4071 117.916 55.5594 114.46 58.3246 114.23C61.0898 113.999 66.1597 114.921 70.5378 113.538C74.9159 112.155 75.6077 111.695 75.6077 111.695L65.0074 94.4119C65.0074 94.4119 62.4727 96.4859 56.0206 96.4859C49.5684 96.4859 45.6509 97.6382 44.9597 100.864L54.4071 117.916Z" stroke="#263238" stroke-width="0.579345" stroke-miterlimit="10" stroke-linecap="round" stroke-linejoin="round"/>
<path d="M55.0982 119.76C55.0982 119.76 53.4853 120.451 51.8719 121.834C50.259 123.216 48.8761 125.751 46.1108 129.208" stroke="#263238" stroke-width="0.579345" stroke-miterlimit="10" stroke-linecap="round" stroke-linejoin="round"/>
<path d="M56.9424 118.377C56.9424 118.377 58.5553 116.303 61.0905 116.073C63.6251 115.843 68.0038 115.843 75.1471 113.078" stroke="#263238" stroke-width="0.579345" stroke-miterlimit="10" stroke-linecap="round" stroke-linejoin="round"/>
<path d="M32.0549 119.299C32.0549 119.299 34.3596 116.765 37.5854 112.155C40.8117 107.547 43.1158 105.703 45.651 105.703" stroke="#263238" stroke-width="0.579345" stroke-miterlimit="10" stroke-linecap="round" stroke-linejoin="round"/>
<path d="M33.8982 122.295C33.8982 122.295 36.2028 119.76 39.4286 115.151C42.655 110.543 44.9591 108.699 47.4943 108.699" stroke="#263238" stroke-width="0.579345" stroke-miterlimit="10" stroke-linecap="round" stroke-linejoin="round"/>
<path d="M35.7417 125.29C35.7417 125.29 38.0463 122.756 41.2721 118.147C44.4985 113.538 46.8026 111.695 49.3372 111.695" stroke="#263238" stroke-width="0.579345" stroke-miterlimit="10" stroke-linecap="round" stroke-linejoin="round"/>
<path d="M37.5852 128.286C37.5852 128.286 39.8898 125.751 43.1156 121.143C46.342 116.534 48.6461 114.691 51.1807 114.691" stroke="#263238" stroke-width="0.579345" stroke-miterlimit="10" stroke-linecap="round" stroke-linejoin="round"/>
<path d="M48.8767 104.321C48.8767 104.321 49.7985 101.786 53.2548 101.786C56.7112 101.786 64.3458 101.483 65.2374 98.7905" stroke="#263238" stroke-width="0.579345" stroke-miterlimit="10" stroke-linecap="round" stroke-linejoin="round"/>
<path d="M50.9507 107.777C50.9507 107.777 52.5636 105.703 56.9423 105.703C61.3204 105.703 65.2379 104.781 67.7731 102.247" stroke="#263238" stroke-width="0.579345" stroke-miterlimit="10" stroke-linecap="round" stroke-linejoin="round"/>
<path d="M52.333 111.234C52.333 111.234 53.7159 108.238 57.6329 108.238C61.5504 108.238 66.3897 107.547 69.1549 105.473" stroke="#263238" stroke-width="0.579345" stroke-miterlimit="10" stroke-linecap="round" stroke-linejoin="round"/>
<path d="M53.9465 113.769C53.9465 113.769 54.6377 111.464 58.5552 111.234C62.4728 111.004 67.312 110.082 70.999 108.469" stroke="#263238" stroke-width="0.579345" stroke-miterlimit="10" stroke-linecap="round" stroke-linejoin="round"/>
<path d="M154.578 14.4459L153.972 13.7524L142.316 24.3174L157.961 32.8506L166.159 46.1054L175.783 35.906L175.569 35.2855" stroke="#263238" stroke-width="0.579345" stroke-miterlimit="10" stroke-linecap="round" stroke-linejoin="round"/>
<path d="M168.732 22.0248L159.022 31.2648C159.022 31.2648 158.917 28.3455 156.15 28.4104C153.384 28.4759 149.293 26.5936 147.44 25.7663C145.587 24.9389 144.195 23.9917 144.195 23.9917L155.318 13.8926C155.318 13.8926 158.763 16.4336 162.841 17.0095C166.921 17.5847 168.632 19.7584 168.732 22.0248Z" stroke="#263238" stroke-width="0.579345" stroke-miterlimit="10" stroke-linecap="round" stroke-linejoin="round"/>
<path d="M159.022 31.265C159.022 31.265 161.521 31.4331 162.154 33.2331C162.786 35.0331 163.05 38.5659 164.729 41.2396C166.407 43.9133 166.834 44.2934 166.834 44.2934L176.497 34.2469C176.497 34.2469 174.678 32.9197 173.56 28.6267C172.443 24.3338 170.998 21.9266 168.732 22.0256L159.022 31.265Z" stroke="#263238" stroke-width="0.579345" stroke-miterlimit="10" stroke-linecap="round" stroke-linejoin="round"/>
<path d="M157.915 32.044C157.915 32.044 157.176 31.0904 155.977 30.2568C154.777 29.4231 152.851 28.9422 150.073 27.7007" stroke="#263238" stroke-width="0.579345" stroke-miterlimit="10" stroke-linecap="round" stroke-linejoin="round"/>
<path d="M159.154 33.0313C159.154 33.0313 160.814 33.7456 161.406 35.3921C161.998 37.0386 162.757 39.9522 165.834 44.226" stroke="#263238" stroke-width="0.579345" stroke-miterlimit="10" stroke-linecap="round" stroke-linejoin="round"/>
<path d="M154.23 16.632C154.23 16.632 156.316 17.7263 159.942 19.0745C163.567 20.4226 165.193 21.6369 165.631 23.3234" stroke="#263238" stroke-width="0.579345" stroke-miterlimit="10" stroke-linecap="round" stroke-linejoin="round"/>
<path d="M152.557 18.3773C152.557 18.3773 154.642 19.4717 158.267 20.8198C161.893 22.168 163.518 23.3823 163.958 25.0688" stroke="#263238" stroke-width="0.579345" stroke-miterlimit="10" stroke-linecap="round" stroke-linejoin="round"/>
<path d="M150.882 20.1228C150.882 20.1228 152.968 21.2172 156.594 22.5653C160.218 23.9135 161.845 25.1278 162.283 26.8142" stroke="#263238" stroke-width="0.579345" stroke-miterlimit="10" stroke-linecap="round" stroke-linejoin="round"/>
<path d="M149.209 21.8678C149.209 21.8678 151.294 22.9622 154.92 24.3103C158.545 25.6585 160.171 26.8728 160.61 28.5592" stroke="#263238" stroke-width="0.579345" stroke-miterlimit="10" stroke-linecap="round" stroke-linejoin="round"/>
<path d="M167.11 25.2305C167.11 25.2305 168.956 25.4048 169.555 27.7048C170.153 30.0048 171.677 35.0318 173.623 35.1587" stroke="#263238" stroke-width="0.579345" stroke-miterlimit="10" stroke-linecap="round" stroke-linejoin="round"/>
<path d="M165.17 27.209C165.17 27.209 166.829 27.9233 167.587 30.8363C168.346 33.7492 169.638 36.1964 171.763 37.4437" stroke="#263238" stroke-width="0.579345" stroke-miterlimit="10" stroke-linecap="round" stroke-linejoin="round"/>
<path d="M163.109 28.7273C163.109 28.7273 165.342 29.1282 166.02 31.7347C166.699 34.3412 167.997 37.4412 169.855 38.922" stroke="#263238" stroke-width="0.579345" stroke-miterlimit="10" stroke-linecap="round" stroke-linejoin="round"/>
<path d="M161.702 30.24C161.702 30.24 163.355 30.3008 164.186 32.8673C165.018 35.4338 166.47 38.4939 168.182 40.6682" stroke="#263238" stroke-width="0.579345" stroke-miterlimit="10" stroke-linecap="round" stroke-linejoin="round"/>
<path d="M70.2962 37.3734L60.6147 52.5499L62.7079 53.0731L72.3894 38.6816L87.8272 47.578L89.9203 45.4848L72.9125 36.5884" stroke="#263238" stroke-width="0.579345" stroke-miterlimit="10" stroke-linecap="round" stroke-linejoin="round"/>
<path d="M72.3894 38.6816L76.5758 63.8009L89.3972 71.1279L87.5654 48.8868" stroke="#263238" stroke-width="0.579345" stroke-miterlimit="10" stroke-linecap="round" stroke-linejoin="round"/>
<path d="M89.3972 71.1279L91.4904 67.2028L89.9204 45.4849" stroke="#263238" stroke-width="0.579345" stroke-miterlimit="10" stroke-linecap="round" stroke-linejoin="round"/>
<path d="M76.5757 63.8009L67.9411 75.5761L63.4929 55.1663" stroke="#263238" stroke-width="0.579345" stroke-miterlimit="10" stroke-linecap="round" stroke-linejoin="round"/>
<path d="M60.6147 52.55L65.5861 75.3142L67.9412 75.5761" stroke="#263238" stroke-width="0.579345" stroke-miterlimit="10" stroke-linecap="round" stroke-linejoin="round"/>
<path d="M72.9126 47.3167L66.1094 56.7362" stroke="#263238" stroke-width="0.579345" stroke-miterlimit="10" stroke-linecap="round" stroke-linejoin="round"/>
<path d="M73.4363 51.7649L66.6331 61.1845" stroke="#263238" stroke-width="0.579345" stroke-miterlimit="10" stroke-linecap="round" stroke-linejoin="round"/>
<path d="M73.9595 56.2133L67.1562 65.6328" stroke="#263238" stroke-width="0.579345" stroke-miterlimit="10" stroke-linecap="round" stroke-linejoin="round"/>
<path d="M74.4825 60.6616L67.6792 70.0811" stroke="#263238" stroke-width="0.579345" stroke-miterlimit="10" stroke-linecap="round" stroke-linejoin="round"/>
<path d="M75.7908 47.5781L84.9491 52.8113" stroke="#263238" stroke-width="0.579345" stroke-miterlimit="10" stroke-linecap="round" stroke-linejoin="round"/>
<path d="M75.7908 51.7649L84.9491 56.9981" stroke="#263238" stroke-width="0.579345" stroke-miterlimit="10" stroke-linecap="round" stroke-linejoin="round"/>
<path d="M77.0994 56.2133L86.2571 61.4465" stroke="#263238" stroke-width="0.579345" stroke-miterlimit="10" stroke-linecap="round" stroke-linejoin="round"/>
<path d="M77.3606 60.6616L86.5189 65.8948" stroke="#263238" stroke-width="0.579345" stroke-miterlimit="10" stroke-linecap="round" stroke-linejoin="round"/>
<path d="M202.864 147.546L210.968 131.472L208.832 131.162L200.65 146.455L184.395 139.159L182.523 141.452L200.34 148.591" stroke="#263238" stroke-width="0.579345" stroke-miterlimit="10" stroke-linecap="round" stroke-linejoin="round"/>
<path d="M200.65 146.455L193.955 121.885L180.461 115.887L184.523 137.83" stroke="#263238" stroke-width="0.579345" stroke-miterlimit="10" stroke-linecap="round" stroke-linejoin="round"/>
<path d="M180.461 115.887L178.773 120.003L182.523 141.452" stroke="#263238" stroke-width="0.579345" stroke-miterlimit="10" stroke-linecap="round" stroke-linejoin="round"/>
<path d="M193.955 121.885L201.36 109.301L207.841 129.159" stroke="#263238" stroke-width="0.579345" stroke-miterlimit="10" stroke-linecap="round" stroke-linejoin="round"/>
<path d="M210.968 131.472L203.729 109.324L201.36 109.301" stroke="#263238" stroke-width="0.579345" stroke-miterlimit="10" stroke-linecap="round" stroke-linejoin="round"/>
<path d="M199.26 137.917L205.08 127.86" stroke="#263238" stroke-width="0.579345" stroke-miterlimit="10" stroke-linecap="round" stroke-linejoin="round"/>
<path d="M198.291 133.544L204.111 123.487" stroke="#263238" stroke-width="0.579345" stroke-miterlimit="10" stroke-linecap="round" stroke-linejoin="round"/>
<path d="M197.322 129.171L203.142 119.114" stroke="#263238" stroke-width="0.579345" stroke-miterlimit="10" stroke-linecap="round" stroke-linejoin="round"/>
<path d="M196.354 124.798L202.174 114.741" stroke="#263238" stroke-width="0.579345" stroke-miterlimit="10" stroke-linecap="round" stroke-linejoin="round"/>
<path d="M196.37 137.947L186.731 133.662" stroke="#263238" stroke-width="0.579345" stroke-miterlimit="10" stroke-linecap="round" stroke-linejoin="round"/>
<path d="M195.948 133.781L186.309 129.497" stroke="#263238" stroke-width="0.579345" stroke-miterlimit="10" stroke-linecap="round" stroke-linejoin="round"/>
<path d="M194.198 129.487L184.56 125.203" stroke="#263238" stroke-width="0.579345" stroke-miterlimit="10" stroke-linecap="round" stroke-linejoin="round"/>
<path d="M193.49 125.088L183.852 120.804" stroke="#263238" stroke-width="0.579345" stroke-miterlimit="10" stroke-linecap="round" stroke-linejoin="round"/>
<path d="M167.718 155.898C166.093 159.91 164.425 156.683 164.69 139.863C164.814 131.98 165.368 115.873 174.087 119.418C182.463 122.824 171.425 146.639 171.425 146.639L167.718 155.898ZM179.692 158.282C179.692 158.282 197.867 139.343 191.05 133.401C183.956 127.217 178.2 142.27 175.523 149.686C169.81 165.509 170.339 169.102 173.18 165.835L179.692 158.282ZM183.524 175.28C183.524 175.28 200.164 163.433 195.814 157.903C191.286 152.146 184.704 162.822 181.582 168.103C174.922 179.373 174.806 182.197 177.451 180.11L183.524 175.28ZM188.029 192.227C188.029 192.227 204.669 180.38 200.318 174.85C195.79 169.094 189.208 179.769 186.087 185.05C179.426 196.32 179.31 199.144 181.955 197.058L188.029 192.227ZM158.969 158.154C158.969 158.154 135.685 146.035 131.899 154.247C127.957 162.794 144.022 164.087 151.891 164.572C168.681 165.607 171.981 164.09 168.048 162.282L158.969 158.154ZM162.248 171.495C162.248 171.495 137.02 164.246 134.941 173.047C132.778 182.207 148.779 180.281 156.588 179.192C173.248 176.869 176.18 174.726 171.966 173.736L162.248 171.495ZM168.023 186.041C168.023 186.041 146.521 180.494 144.966 187.985C143.348 195.781 156.835 193.782 163.413 192.68C177.449 190.331 179.879 188.451 176.292 187.711L168.023 186.041ZM171.389 198.049C171.389 198.049 150.596 190.251 148.256 197.534C145.82 205.115 159.443 204.558 166.1 204.161C180.306 203.314 182.922 201.703 179.434 200.587L171.389 198.049ZM157.468 137.218C157.468 137.218 147.975 107.719 137.2 113.077C125.986 118.654 138.943 131.957 145.425 138.325C159.254 151.913 163.532 152.867 161.711 148.122L157.468 137.218Z" fill="#3D4B88"/>
<path opacity="0.65" d="M167.718 155.898C166.093 159.91 164.425 156.683 164.69 139.863C164.814 131.98 165.368 115.873 174.087 119.418C182.463 122.824 171.425 146.639 171.425 146.639L167.718 155.898ZM179.692 158.282C179.692 158.282 197.867 139.343 191.05 133.401C183.956 127.217 178.2 142.27 175.523 149.686C169.81 165.509 170.339 169.102 173.18 165.835L179.692 158.282ZM183.524 175.28C183.524 175.28 200.164 163.433 195.814 157.903C191.286 152.146 184.704 162.822 181.582 168.103C174.922 179.373 174.806 182.197 177.451 180.11L183.524 175.28ZM188.029 192.227C188.029 192.227 204.669 180.38 200.318 174.85C195.79 169.094 189.208 179.769 186.087 185.05C179.426 196.32 179.31 199.144 181.955 197.058L188.029 192.227ZM158.969 158.154C158.969 158.154 135.685 146.035 131.899 154.247C127.957 162.794 144.022 164.087 151.891 164.572C168.681 165.607 171.981 164.09 168.048 162.282L158.969 158.154ZM162.248 171.495C162.248 171.495 137.02 164.246 134.941 173.047C132.778 182.207 148.779 180.281 156.588 179.192C173.248 176.869 176.18 174.726 171.966 173.736L162.248 171.495ZM168.023 186.041C168.023 186.041 146.521 180.494 144.966 187.985C143.348 195.781 156.835 193.782 163.413 192.68C177.449 190.331 179.879 188.451 176.292 187.711L168.023 186.041ZM171.389 198.049C171.389 198.049 150.596 190.251 148.256 197.534C145.82 205.115 159.443 204.558 166.1 204.161C180.306 203.314 182.922 201.703 179.434 200.587L171.389 198.049ZM157.468 137.218C157.468 137.218 147.975 107.719 137.2 113.077C125.986 118.654 138.943 131.957 145.425 138.325C159.254 151.913 163.532 152.867 161.711 148.122L157.468 137.218Z" fill="white"/>
<path d="M141.709 123.588C141.709 123.588 165.548 152.674 171.252 167.234C177.805 183.962 182.269 202.808 183.154 218.416" stroke="#CCCCCC" stroke-width="0.72534" stroke-miterlimit="10" stroke-linecap="round" stroke-linejoin="round"/>
<path d="M166.506 157.735L169.821 129.998" stroke="#CCCCCC" stroke-width="0.72534" stroke-miterlimit="10" stroke-linecap="round" stroke-linejoin="round"/>
<path d="M171.251 167.234L183.244 143.92" stroke="#CCCCCC" stroke-width="0.72534" stroke-miterlimit="10" stroke-linecap="round" stroke-linejoin="round"/>
<path d="M169.501 163.778L144.384 158.662" stroke="#CCCCCC" stroke-width="0.72534" stroke-miterlimit="10" stroke-linecap="round" stroke-linejoin="round"/>
<path d="M175.97 180.461L190.738 163.637" stroke="#CCCCCC" stroke-width="0.72534" stroke-miterlimit="10" stroke-linecap="round" stroke-linejoin="round"/>
<path d="M173.907 174.919L154.946 174.755" stroke="#CCCCCC" stroke-width="0.72534" stroke-miterlimit="10" stroke-linecap="round" stroke-linejoin="round"/>
<path d="M177.556 188.685L163.016 189.261" stroke="#CCCCCC" stroke-width="0.72534" stroke-miterlimit="10" stroke-linecap="round" stroke-linejoin="round"/>
<path d="M180.545 197.47L188.332 187.09" stroke="#CCCCCC" stroke-width="0.72534" stroke-miterlimit="10" stroke-linecap="round" stroke-linejoin="round"/>
<path d="M181.113 201.33L164.106 200.484" stroke="#CCCCCC" stroke-width="0.72534" stroke-miterlimit="10" stroke-linecap="round" stroke-linejoin="round"/>
<path d="M213.568 178.871C210.635 179.978 211.532 177.505 220.609 169.378C224.863 165.569 233.703 157.947 236.103 164.327C238.409 170.457 220.315 176.291 220.315 176.291L213.568 178.871ZM218.186 186.412C218.186 186.412 237.194 186.77 237.004 180.224C236.806 173.41 225.969 177.748 220.709 179.968C209.485 184.707 207.833 186.754 210.967 186.66L218.186 186.412ZM211.028 196.805C211.028 196.805 225.509 199.834 226.312 194.801C227.149 189.563 218.234 191.309 213.891 192.245C204.623 194.241 203.064 195.567 205.473 195.949L211.028 196.805ZM204.228 207.531C204.228 207.531 218.708 210.56 219.512 205.527C220.348 200.289 211.434 202.035 207.091 202.971C197.822 204.967 196.263 206.293 198.673 206.675L204.228 207.531ZM208.068 175.326C208.068 175.326 203.07 156.984 196.841 159.006C190.358 161.111 197.566 170.292 201.176 174.715C208.878 184.155 211.307 185.165 210.335 182.184L208.068 175.326ZM202.583 183.628C202.583 183.628 194.038 166.645 188.336 169.865C182.4 173.216 191.29 180.781 195.707 184.399C205.131 192.12 207.713 192.626 206.168 189.898L202.583 183.628ZM197.685 193.849C197.685 193.849 190.066 179.685 185.318 182.54C180.375 185.511 188.068 191.702 191.888 194.661C200.037 200.971 202.231 201.34 200.862 199.068L197.685 193.849ZM192.951 201.541C192.951 201.541 186.879 186.649 181.854 188.984C176.625 191.414 183.617 198.387 187.1 201.733C194.533 208.874 196.676 209.473 195.556 207.069L192.951 201.541ZM218.467 164.236C218.467 164.236 229.492 144.687 221.346 141.59C212.867 138.366 212.16 151.797 211.958 158.374C211.528 172.41 213.123 175.154 214.752 171.853L218.467 164.236Z" fill="#3D4B88"/>
<path opacity="0.65" d="M213.568 178.871C210.635 179.978 211.532 177.505 220.609 169.378C224.863 165.569 233.703 157.947 236.103 164.327C238.409 170.457 220.315 176.291 220.315 176.291L213.568 178.871ZM218.186 186.412C218.186 186.412 237.194 186.77 237.004 180.224C236.806 173.41 225.969 177.748 220.709 179.968C209.485 184.707 207.833 186.754 210.967 186.66L218.186 186.412ZM211.028 196.805C211.028 196.805 225.509 199.834 226.312 194.801C227.149 189.563 218.234 191.309 213.891 192.245C204.623 194.241 203.064 195.567 205.473 195.949L211.028 196.805ZM204.228 207.531C204.228 207.531 218.708 210.56 219.512 205.527C220.348 200.289 211.434 202.035 207.091 202.971C197.822 204.967 196.263 206.293 198.673 206.675L204.228 207.531ZM208.068 175.326C208.068 175.326 203.07 156.984 196.841 159.006C190.358 161.111 197.566 170.292 201.176 174.715C208.878 184.155 211.307 185.165 210.335 182.184L208.068 175.326ZM202.583 183.628C202.583 183.628 194.038 166.645 188.336 169.865C182.4 173.216 191.29 180.781 195.707 184.399C205.131 192.12 207.713 192.626 206.168 189.898L202.583 183.628ZM197.685 193.849C197.685 193.849 190.066 179.685 185.318 182.54C180.375 185.511 188.068 191.702 191.888 194.661C200.037 200.971 202.231 201.34 200.862 199.068L197.685 193.849ZM192.951 201.541C192.951 201.541 186.879 186.649 181.854 188.984C176.625 191.414 183.617 198.387 187.1 201.733C194.533 208.874 196.676 209.473 195.556 207.069L192.951 201.541ZM218.467 164.236C218.467 164.236 229.492 144.687 221.346 141.59C212.867 138.366 212.16 151.797 211.958 158.374C211.528 172.41 213.123 175.154 214.752 171.853L218.467 164.236Z" fill="#E5E5E5"/>
<path d="M217.97 149.154C217.97 149.154 214.217 176.131 209.276 186.322C203.599 198.03 195.032 210.491 187.165 218.633" stroke="#CCCCCC" stroke-width="0.72534" stroke-miterlimit="10" stroke-linecap="round" stroke-linejoin="round"/>
<path d="M211.995 179.128L228.379 167.259" stroke="#CCCCCC" stroke-width="0.72534" stroke-miterlimit="10" stroke-linecap="round" stroke-linejoin="round"/>
<path d="M209.275 186.322L227.571 181.242" stroke="#CCCCCC" stroke-width="0.72534" stroke-miterlimit="10" stroke-linecap="round" stroke-linejoin="round"/>
<path d="M210.253 183.692L200.629 167.817" stroke="#CCCCCC" stroke-width="0.72534" stroke-miterlimit="10" stroke-linecap="round" stroke-linejoin="round"/>
<path d="M204.559 195.334L220.767 194.919" stroke="#CCCCCC" stroke-width="0.72534" stroke-miterlimit="10" stroke-linecap="round" stroke-linejoin="round"/>
<path d="M206.492 191.512L197.26 181.346" stroke="#CCCCCC" stroke-width="0.72534" stroke-miterlimit="10" stroke-linecap="round" stroke-linejoin="round"/>
<path d="M200.964 200.22L193.511 192.768" stroke="#CCCCCC" stroke-width="0.72534" stroke-miterlimit="10" stroke-linecap="round" stroke-linejoin="round"/>
<path d="M197.76 206.128L207.109 205.168" stroke="#CCCCCC" stroke-width="0.72534" stroke-miterlimit="10" stroke-linecap="round" stroke-linejoin="round"/>
<path d="M195.986 208.327L188.077 198.864" stroke="#CCCCCC" stroke-width="0.72534" stroke-miterlimit="10" stroke-linecap="round" stroke-linejoin="round"/>
<path d="M73.7331 155.898C75.3593 159.91 77.0261 156.683 76.7619 139.863C76.6385 131.98 76.0835 115.873 67.3649 119.418C58.9882 122.824 70.027 146.639 70.027 146.639L73.7331 155.898ZM61.7592 158.282C61.7592 158.282 43.5846 139.343 50.4011 133.401C57.4958 127.217 63.2516 142.27 65.9288 149.686C71.6411 165.509 71.1122 169.102 68.2716 165.835L61.7592 158.282ZM57.9268 175.28C57.9268 175.28 41.2869 163.433 45.6372 157.903C50.1654 152.146 56.7473 162.822 59.8688 168.103C66.529 179.373 66.6454 182.197 64.0001 180.11L57.9268 175.28ZM53.4224 192.227C53.4224 192.227 36.7825 180.38 41.1328 174.85C45.6609 169.094 52.2429 179.769 55.3644 185.05C62.0246 196.32 62.141 199.144 59.4957 197.058L53.4224 192.227ZM82.4824 158.154C82.4824 158.154 105.766 146.035 109.553 154.247C113.494 162.794 97.4295 164.087 89.5602 164.572C72.7702 165.607 69.4703 164.09 73.404 162.282L82.4824 158.154ZM79.2033 171.495C79.2033 171.495 104.431 164.246 106.51 173.047C108.674 182.207 92.6725 180.281 84.8641 179.192C68.2033 176.869 65.2712 174.726 69.4854 173.736L79.2033 171.495ZM73.4284 186.041C73.4284 186.041 94.9308 180.494 96.4852 187.985C98.1033 195.781 84.6161 193.782 78.0377 192.68C64.0019 190.331 61.5721 188.451 65.1588 187.711L73.4284 186.041ZM70.063 198.049C70.063 198.049 90.8551 190.251 93.1956 197.534C95.6318 205.115 82.0085 204.558 75.3512 204.161C61.1451 203.314 58.5294 201.703 62.0176 200.587L70.063 198.049ZM83.9835 137.218C83.9835 137.218 93.476 107.719 104.251 113.077C115.465 118.654 102.508 131.957 96.0263 138.325C82.1973 151.913 77.9195 152.867 79.7398 148.122L83.9835 137.218Z" fill="#3D4B88"/>
<path opacity="0.65" d="M73.7331 155.898C75.3593 159.91 77.0261 156.683 76.7619 139.863C76.6385 131.98 76.0835 115.873 67.3649 119.418C58.9882 122.824 70.027 146.639 70.027 146.639L73.7331 155.898ZM61.7592 158.282C61.7592 158.282 43.5846 139.343 50.4011 133.401C57.4958 127.217 63.2516 142.27 65.9288 149.686C71.6411 165.509 71.1122 169.102 68.2716 165.835L61.7592 158.282ZM57.9268 175.28C57.9268 175.28 41.2869 163.433 45.6372 157.903C50.1654 152.146 56.7473 162.822 59.8688 168.103C66.529 179.373 66.6454 182.197 64.0001 180.11L57.9268 175.28ZM53.4224 192.227C53.4224 192.227 36.7825 180.38 41.1328 174.85C45.6609 169.094 52.2429 179.769 55.3644 185.05C62.0246 196.32 62.141 199.144 59.4957 197.058L53.4224 192.227ZM82.4824 158.154C82.4824 158.154 105.766 146.035 109.553 154.247C113.494 162.794 97.4295 164.087 89.5602 164.572C72.7702 165.607 69.4703 164.09 73.404 162.282L82.4824 158.154ZM79.2033 171.495C79.2033 171.495 104.431 164.246 106.51 173.047C108.674 182.207 92.6725 180.281 84.8641 179.192C68.2033 176.869 65.2712 174.726 69.4854 173.736L79.2033 171.495ZM73.4284 186.041C73.4284 186.041 94.9308 180.494 96.4852 187.985C98.1033 195.781 84.6161 193.782 78.0377 192.68C64.0019 190.331 61.5721 188.451 65.1588 187.711L73.4284 186.041ZM70.063 198.049C70.063 198.049 90.8551 190.251 93.1956 197.534C95.6318 205.115 82.0085 204.558 75.3512 204.161C61.1451 203.314 58.5294 201.703 62.0176 200.587L70.063 198.049ZM83.9835 137.218C83.9835 137.218 93.476 107.719 104.251 113.077C115.465 118.654 102.508 131.957 96.0263 138.325C82.1973 151.913 77.9195 152.867 79.7398 148.122L83.9835 137.218Z" fill="white"/>
<path d="M99.7428 123.588C99.7428 123.588 75.9039 152.674 70.1997 167.234C63.6467 183.962 59.1823 202.808 58.2976 218.416" stroke="#CCCCCC" stroke-width="0.72534" stroke-miterlimit="10" stroke-linecap="round" stroke-linejoin="round"/>
<path d="M74.9457 157.735L71.6301 129.998" stroke="#CCCCCC" stroke-width="0.72534" stroke-miterlimit="10" stroke-linecap="round" stroke-linejoin="round"/>
<path d="M70.1997 167.234L58.2073 143.92" stroke="#CCCCCC" stroke-width="0.72534" stroke-miterlimit="10" stroke-linecap="round" stroke-linejoin="round"/>
<path d="M71.9512 163.778L97.0675 158.662" stroke="#CCCCCC" stroke-width="0.72534" stroke-miterlimit="10" stroke-linecap="round" stroke-linejoin="round"/>
<path d="M65.4809 180.461L50.7134 163.637" stroke="#CCCCCC" stroke-width="0.72534" stroke-miterlimit="10" stroke-linecap="round" stroke-linejoin="round"/>
<path d="M67.5444 174.919L86.5052 174.755" stroke="#CCCCCC" stroke-width="0.72534" stroke-miterlimit="10" stroke-linecap="round" stroke-linejoin="round"/>
<path d="M63.8948 188.685L78.4358 189.261" stroke="#CCCCCC" stroke-width="0.72534" stroke-miterlimit="10" stroke-linecap="round" stroke-linejoin="round"/>
<path d="M60.9069 197.47L53.1194 187.09" stroke="#CCCCCC" stroke-width="0.72534" stroke-miterlimit="10" stroke-linecap="round" stroke-linejoin="round"/>
<path d="M60.3381 201.33L77.3454 200.484" stroke="#CCCCCC" stroke-width="0.72534" stroke-miterlimit="10" stroke-linecap="round" stroke-linejoin="round"/>
<path d="M27.8825 178.87C30.8158 179.978 29.9189 177.505 20.8423 169.378C16.5882 165.569 7.74798 157.947 5.34775 164.327C3.04196 170.457 21.1361 176.291 21.1361 176.291L27.8825 178.87ZM23.2657 186.412C23.2657 186.412 4.25801 186.77 4.44745 180.224C4.64501 173.41 15.4817 177.748 20.7421 179.968C31.9663 184.707 33.6175 186.754 30.4838 186.66L23.2657 186.412ZM30.423 196.805C30.423 196.805 15.9422 199.833 15.1387 194.801C14.3027 189.563 23.2165 191.309 27.5598 192.245C36.8282 194.241 38.3872 195.567 35.9771 195.949L30.423 196.805ZM37.2239 207.531C37.2239 207.531 22.7432 210.559 21.9396 205.527C21.1036 200.289 30.0174 202.035 34.3608 202.971C43.6291 204.967 45.1882 206.293 42.7781 206.675L37.2239 207.531ZM33.3834 175.326C33.3834 175.326 38.3814 156.984 44.6111 159.006C51.0946 161.111 43.8864 170.292 40.2765 174.715C32.5741 184.155 30.1455 185.164 31.117 182.184L33.3834 175.326ZM38.8681 183.627C38.8681 183.627 47.4128 166.645 53.1153 169.865C59.0513 173.216 50.1613 180.781 45.7443 184.399C36.319 192.119 33.738 192.626 35.2831 189.898L38.8681 183.627ZM43.767 193.849C43.767 193.849 51.3854 179.685 56.1337 182.539C61.0761 185.511 53.3836 191.702 49.5639 194.661C41.4149 200.971 39.2203 201.34 40.5899 199.068L43.767 193.849ZM48.4997 201.541C48.4997 201.541 54.5718 186.649 59.5965 188.983C64.8262 191.414 57.8341 198.387 54.3505 201.733C46.9175 208.874 44.7745 209.473 45.895 207.069L48.4997 201.541ZM22.9848 164.236C22.9848 164.236 11.9592 144.687 20.1054 141.59C28.5841 138.366 29.2915 151.797 29.4931 158.374C29.9236 172.41 28.3286 175.154 26.6995 171.853L22.9848 164.236Z" fill="#3D4B88"/>
<path opacity="0.65" d="M27.8825 178.87C30.8158 179.978 29.9189 177.505 20.8423 169.378C16.5882 165.569 7.74798 157.947 5.34775 164.327C3.04196 170.457 21.1361 176.291 21.1361 176.291L27.8825 178.87ZM23.2657 186.412C23.2657 186.412 4.25801 186.77 4.44745 180.224C4.64501 173.41 15.4817 177.748 20.7421 179.968C31.9663 184.707 33.6175 186.754 30.4838 186.66L23.2657 186.412ZM30.423 196.805C30.423 196.805 15.9422 199.833 15.1387 194.801C14.3027 189.563 23.2165 191.309 27.5598 192.245C36.8282 194.241 38.3872 195.567 35.9771 195.949L30.423 196.805ZM37.2239 207.531C37.2239 207.531 22.7432 210.559 21.9396 205.527C21.1036 200.289 30.0174 202.035 34.3608 202.971C43.6291 204.967 45.1882 206.293 42.7781 206.675L37.2239 207.531ZM33.3834 175.326C33.3834 175.326 38.3814 156.984 44.6111 159.006C51.0946 161.111 43.8864 170.292 40.2765 174.715C32.5741 184.155 30.1455 185.164 31.117 182.184L33.3834 175.326ZM38.8681 183.627C38.8681 183.627 47.4128 166.645 53.1153 169.865C59.0513 173.216 50.1613 180.781 45.7443 184.399C36.319 192.119 33.738 192.626 35.2831 189.898L38.8681 183.627ZM43.767 193.849C43.767 193.849 51.3854 179.685 56.1337 182.539C61.0761 185.511 53.3836 191.702 49.5639 194.661C41.4149 200.971 39.2203 201.34 40.5899 199.068L43.767 193.849ZM48.4997 201.541C48.4997 201.541 54.5718 186.649 59.5965 188.983C64.8262 191.414 57.8341 198.387 54.3505 201.733C46.9175 208.874 44.7745 209.473 45.895 207.069L48.4997 201.541ZM22.9848 164.236C22.9848 164.236 11.9592 144.687 20.1054 141.59C28.5841 138.366 29.2915 151.797 29.4931 158.374C29.9236 172.41 28.3286 175.154 26.6995 171.853L22.9848 164.236Z" fill="#E5E5E5"/>
<path d="M23.4807 149.154C23.4807 149.154 27.2343 176.131 32.1755 186.322C37.8525 198.03 46.4187 210.491 54.2857 218.633" stroke="#CCCCCC" stroke-width="0.72534" stroke-miterlimit="10" stroke-linecap="round" stroke-linejoin="round"/>
<path d="M29.4561 179.128L13.0723 167.259" stroke="#CCCCCC" stroke-width="0.72534" stroke-miterlimit="10" stroke-linecap="round" stroke-linejoin="round"/>
<path d="M32.1756 186.322L13.8799 181.242" stroke="#CCCCCC" stroke-width="0.72534" stroke-miterlimit="10" stroke-linecap="round" stroke-linejoin="round"/>
<path d="M31.1982 183.692L40.8223 167.817" stroke="#CCCCCC" stroke-width="0.72534" stroke-miterlimit="10" stroke-linecap="round" stroke-linejoin="round"/>
<path d="M36.8927 195.334L20.6843 194.919" stroke="#CCCCCC" stroke-width="0.72534" stroke-miterlimit="10" stroke-linecap="round" stroke-linejoin="round"/>
<path d="M34.9587 191.512L44.1912 181.346" stroke="#CCCCCC" stroke-width="0.72534" stroke-miterlimit="10" stroke-linecap="round" stroke-linejoin="round"/>
<path d="M40.4873 200.22L47.9406 192.768" stroke="#CCCCCC" stroke-width="0.72534" stroke-miterlimit="10" stroke-linecap="round" stroke-linejoin="round"/>
<path d="M43.6918 206.127L34.3423 205.167" stroke="#CCCCCC" stroke-width="0.72534" stroke-miterlimit="10" stroke-linecap="round" stroke-linejoin="round"/>
<path d="M45.4651 208.327L53.3749 198.864" stroke="#CCCCCC" stroke-width="0.72534" stroke-miterlimit="10" stroke-linecap="round" stroke-linejoin="round"/>
<path d="M143.188 153.929H81.9399V166.467H143.188V153.929Z" fill="white" stroke="#263238" stroke-width="0.579345" stroke-miterlimit="10" stroke-linecap="round" stroke-linejoin="round"/>
<path d="M82.5725 157.181H93.3246" stroke="#263238" stroke-width="0.579345" stroke-miterlimit="10" stroke-linecap="round" stroke-linejoin="round"/>
<path d="M96.9089 160.603H98.3747" stroke="#263238" stroke-width="0.579345" stroke-miterlimit="10" stroke-linecap="round" stroke-linejoin="round"/>
<path d="M82.4097 160.603H94.4653" stroke="#263238" stroke-width="0.579345" stroke-miterlimit="10" stroke-linecap="round" stroke-linejoin="round"/>
<path d="M82.6606 164.147H87.6227" stroke="#263238" stroke-width="0.579345" stroke-miterlimit="10" stroke-linecap="round" stroke-linejoin="round"/>
<path d="M130.613 154.362C130.613 154.362 128.884 159.694 130.613 166.179H155.294C155.294 166.179 152.699 158.685 155.294 154.362H130.613Z" fill="white"/>
<mask id="mask0_31_890" style="mask-type:luminance" maskUnits="userSpaceOnUse" x="129" y="154" width="27" height="13">
<path d="M130.613 154.362C130.613 154.362 128.884 159.694 130.613 166.179H155.294C155.294 166.179 152.699 158.685 155.294 154.362H130.613Z" fill="white"/>
</mask>
<g mask="url(#mask0_31_890)">
<path opacity="0.24" d="M130.613 154.362C130.613 154.362 128.884 159.694 130.613 166.179H155.294C155.294 166.179 152.699 158.685 155.294 154.362H130.613Z" fill="#333333" stroke="#263238" stroke-width="0.579345" stroke-miterlimit="10" stroke-linecap="round" stroke-linejoin="round"/>
</g>
<path d="M130.613 154.362C130.613 154.362 128.884 159.694 130.613 166.179H155.294C155.294 166.179 152.699 158.685 155.294 154.362H130.613Z" stroke="#263238" stroke-width="0.579345" stroke-miterlimit="10" stroke-linecap="round" stroke-linejoin="round"/>
<path d="M82.6607 164.147V155.586C82.6607 155.148 83.0158 154.794 83.4532 154.794H156.276C156.608 154.794 156.877 154.525 156.877 154.194C156.877 153.863 156.608 153.594 156.276 153.594H81.4852C81.0472 153.594 80.6926 153.949 80.6926 154.387V165.347C80.6926 166.055 81.2668 166.629 81.9753 166.629H156.276C156.608 166.629 156.877 166.361 156.877 166.03C156.877 165.698 156.608 165.43 156.276 165.43H83.9433C83.2348 165.43 82.6607 164.855 82.6607 164.147Z" fill="#263238" stroke="#263238" stroke-width="0.579345" stroke-miterlimit="10" stroke-linecap="round" stroke-linejoin="round"/>
<path d="M143.188 179.807H81.9399V192.344H143.188V179.807Z" fill="white" stroke="#263238" stroke-width="0.579345" stroke-miterlimit="10" stroke-linecap="round" stroke-linejoin="round"/>
<path d="M82.9619 182.222H93.714" stroke="#263238" stroke-width="0.579345" stroke-miterlimit="10" stroke-linecap="round" stroke-linejoin="round"/>
<path d="M97.2983 185.643H98.7641" stroke="#263238" stroke-width="0.579345" stroke-miterlimit="10" stroke-linecap="round" stroke-linejoin="round"/>
<path d="M82.7991 185.643H94.8547" stroke="#263238" stroke-width="0.579345" stroke-miterlimit="10" stroke-linecap="round" stroke-linejoin="round"/>
<path d="M83.0498 189.187H88.0119" stroke="#263238" stroke-width="0.579345" stroke-miterlimit="10" stroke-linecap="round" stroke-linejoin="round"/>
<path d="M130.999 180.239C130.999 180.239 129.269 185.571 130.999 192.056H155.293C155.293 192.056 152.699 184.562 155.293 180.239H130.999Z" fill="white"/>
<mask id="mask1_31_890" style="mask-type:luminance" maskUnits="userSpaceOnUse" x="130" y="180" width="26" height="13">
<path d="M130.999 180.239C130.999 180.239 129.269 185.571 130.999 192.056H155.293C155.293 192.056 152.699 184.562 155.293 180.239H130.999Z" fill="white"/>
</mask>
<g mask="url(#mask1_31_890)">
<path opacity="0.24" d="M130.999 180.239C130.999 180.239 129.269 185.571 130.999 192.056H155.293C155.293 192.056 152.699 184.562 155.293 180.239H130.999Z" fill="#333333" stroke="#263238" stroke-width="0.579345" stroke-miterlimit="10" stroke-linecap="round" stroke-linejoin="round"/>
</g>
<path d="M130.999 180.239C130.999 180.239 129.269 185.571 130.999 192.056H155.293C155.293 192.056 152.699 184.562 155.293 180.239H130.999Z" stroke="#263238" stroke-width="0.579345" stroke-miterlimit="10" stroke-linecap="round" stroke-linejoin="round"/>
<path d="M82.6607 190.025V181.464C82.6607 181.026 83.0158 180.672 83.4532 180.672H156.276C156.608 180.672 156.877 180.403 156.877 180.071C156.877 179.74 156.608 179.472 156.276 179.472H81.4852C81.0472 179.472 80.6926 179.826 80.6926 180.264V191.224C80.6926 191.933 81.2668 192.507 81.9753 192.507H156.276C156.608 192.507 156.877 192.238 156.877 191.907C156.877 191.576 156.608 191.307 156.276 191.307H83.9433C83.2348 191.307 82.6607 190.733 82.6607 190.025Z" fill="#263238" stroke="#263238" stroke-width="0.579345" stroke-miterlimit="10" stroke-linecap="round" stroke-linejoin="round"/>
<path d="M82.7202 204.287C83.1484 202.847 84.7248 196.897 82.777 193.087H153.259V204.287H82.7202Z" fill="white" stroke="#263238" stroke-width="0.579345" stroke-miterlimit="10" stroke-linecap="round" stroke-linejoin="round"/>
<path d="M124.801 195.563H114.049" stroke="#263238" stroke-width="0.579345" stroke-miterlimit="10" stroke-linecap="round" stroke-linejoin="round"/>
<path d="M110.465 198.984H108.999" stroke="#263238" stroke-width="0.579345" stroke-miterlimit="10" stroke-linecap="round" stroke-linejoin="round"/>
<path d="M124.964 198.984H112.909" stroke="#263238" stroke-width="0.579345" stroke-miterlimit="10" stroke-linecap="round" stroke-linejoin="round"/>
<path d="M124.713 202.528H119.751" stroke="#263238" stroke-width="0.579345" stroke-miterlimit="10" stroke-linecap="round" stroke-linejoin="round"/>
<path d="M125.199 203.156V194.596C125.199 194.158 124.844 193.803 124.407 193.803H81.2928C80.9614 193.803 80.6932 193.534 80.6932 193.203C80.6932 192.871 80.962 192.603 81.2928 192.603H156.084C156.522 192.603 156.877 192.958 156.877 193.396V204.356C156.877 205.064 156.302 205.638 155.594 205.638H81.2923C80.9609 205.638 80.6926 205.37 80.6926 205.039C80.6926 204.707 80.9614 204.439 81.2923 204.439H123.916C124.625 204.439 125.199 203.865 125.199 203.156Z" fill="#263238" stroke="#263238" stroke-width="0.579345" stroke-miterlimit="10" stroke-linecap="round" stroke-linejoin="round"/>
<path d="M82.7202 217.419C83.1484 215.979 84.7248 210.029 82.777 206.218H153.259V217.419H82.7202Z" fill="white" stroke="#263238" stroke-width="0.579345" stroke-miterlimit="10" stroke-linecap="round" stroke-linejoin="round"/>
<path d="M124.767 208.775H114.015" stroke="#263238" stroke-width="0.579345" stroke-miterlimit="10" stroke-linecap="round" stroke-linejoin="round"/>
<path d="M110.431 212.197H108.965" stroke="#263238" stroke-width="0.579345" stroke-miterlimit="10" stroke-linecap="round" stroke-linejoin="round"/>
<path d="M124.93 212.197H112.875" stroke="#263238" stroke-width="0.579345" stroke-miterlimit="10" stroke-linecap="round" stroke-linejoin="round"/>
<path d="M124.679 215.741H119.717" stroke="#263238" stroke-width="0.579345" stroke-miterlimit="10" stroke-linecap="round" stroke-linejoin="round"/>
<path d="M125.199 216.288V207.728C125.199 207.29 124.844 206.935 124.407 206.935H81.2928C80.9614 206.935 80.6932 206.666 80.6932 206.335C80.6932 206.004 80.962 205.735 81.2928 205.735H156.084C156.522 205.735 156.877 206.09 156.877 206.528V217.488C156.877 218.196 156.302 218.77 155.594 218.77H81.2923C80.9609 218.77 80.6926 218.502 80.6926 218.171C80.6926 217.839 80.9614 217.571 81.2923 217.571H123.916C124.625 217.571 125.199 216.997 125.199 216.288Z" fill="#3D4B88" stroke="#263238" stroke-width="0.579345" stroke-miterlimit="10" stroke-linecap="round" stroke-linejoin="round"/>
<path d="M82.7202 178.024C83.1484 176.584 84.7248 170.633 82.777 166.823H153.259V178.024H82.7202Z" fill="white" stroke="#263238" stroke-width="0.579345" stroke-miterlimit="10" stroke-linecap="round" stroke-linejoin="round"/>
<path d="M124.955 169.331H114.203" stroke="#263238" stroke-width="0.579345" stroke-miterlimit="10" stroke-linecap="round" stroke-linejoin="round"/>
<path d="M110.618 172.752H109.152" stroke="#263238" stroke-width="0.579345" stroke-miterlimit="10" stroke-linecap="round" stroke-linejoin="round"/>
<path d="M125.117 172.752H113.062" stroke="#263238" stroke-width="0.579345" stroke-miterlimit="10" stroke-linecap="round" stroke-linejoin="round"/>
<path d="M124.866 176.296H119.904" stroke="#263238" stroke-width="0.579345" stroke-miterlimit="10" stroke-linecap="round" stroke-linejoin="round"/>
<path d="M125.199 176.893V168.332C125.199 167.894 124.844 167.54 124.407 167.54H81.2928C80.9614 167.54 80.6932 167.271 80.6932 166.94C80.6932 166.609 80.962 166.34 81.2928 166.34H156.084C156.522 166.34 156.877 166.695 156.877 167.132V178.093C156.877 178.801 156.302 179.375 155.594 179.375H81.2923C80.9609 179.375 80.6926 179.106 80.6926 178.776C80.6926 178.444 80.9614 178.176 81.2923 178.176H123.916C124.625 178.175 125.199 177.601 125.199 176.893Z" fill="#3D4B88" stroke="#263238" stroke-width="0.579345" stroke-miterlimit="10" stroke-linecap="round" stroke-linejoin="round"/>
<path d="M108.598 125.882C108.598 125.882 102.612 126.075 93.9214 123.951C85.2312 121.827 78.0861 123.372 76.7339 131.676C75.3823 139.98 97.5904 148.477 113.04 151.567C128.489 154.656 143.938 156.008 151.469 152.725C159.001 149.442 158.808 137.662 155.911 132.255C153.015 126.848 143.359 126.075 138.338 126.848C133.316 127.62 108.598 125.882 108.598 125.882Z" fill="#263238" stroke="#263238" stroke-width="0.579345" stroke-miterlimit="10" stroke-linecap="round" stroke-linejoin="round"/>
<path d="M147.607 89.5766C146.777 84.012 145.954 78.4468 145.124 72.8822C144.353 67.7145 144.028 62.1823 142.682 57.1333C140.944 49.6018 138.337 45.5464 130.516 44.098C122.695 42.6497 114.005 51.0502 114.005 54.8159C114.005 58.5817 116.692 67.083 112.557 80.4519C111.142 85.0247 116.61 85.6724 123.222 83.6488L147.607 89.5766Z" fill="#263238" stroke="#263238" stroke-width="0.579345" stroke-miterlimit="10" stroke-linecap="round" stroke-linejoin="round"/>
<path d="M126.606 77.9897C126.606 77.9897 117.047 79.2933 112.557 80.452C108.067 81.6106 106.449 83.2583 104.855 86.2999C103.262 89.3414 100.836 100.748 98.5191 105.528C96.2017 110.307 91.9898 111.592 91.2657 116.662C90.5415 121.731 94.5969 123.469 97.6385 124.048C100.68 124.628 104.446 124.772 104.446 124.772C104.446 124.772 109.37 136.359 118.929 137.228C128.489 138.097 135.586 131.435 139.931 128.973C144.276 126.51 144.565 120.862 144.71 114.344C144.855 107.827 148.705 93.1726 147.691 89.1172C146.677 85.0618 145.16 84.3938 138.581 81.0197C135.767 79.5754 130.661 77.7001 126.606 77.9897Z" fill="#3D4B88" stroke="#263238" stroke-width="0.579345" stroke-miterlimit="10" stroke-linecap="round" stroke-linejoin="round"/>
<path d="M96.5541 108.515C94.3473 111.161 91.8121 112.833 91.2658 116.661C91.143 117.521 91.1667 118.279 91.2907 118.958C91.8805 119.851 93.6979 121.964 97.2336 120.953C101.66 119.689 101.186 113.523 98.4983 109.729C97.9636 108.974 97.2904 108.606 96.5541 108.515Z" fill="white" stroke="#263238" stroke-width="0.579345" stroke-miterlimit="10" stroke-linecap="round" stroke-linejoin="round"/>
<path d="M125.93 97.5513C129.978 95.6957 132.171 92.4907 134.027 86.4175C134.897 83.5717 135.393 81.3273 135.678 79.7359C132.927 78.6803 129.501 77.7829 126.606 77.9897C126.606 77.9897 122.478 78.5528 118.373 79.2672C118.03 81.398 117.212 87.4678 118.17 91.9838C119.35 97.5513 121.881 99.4069 125.93 97.5513Z" fill="white" stroke="#263238" stroke-width="0.579345" stroke-miterlimit="10" stroke-linecap="round" stroke-linejoin="round"/>
<path d="M106.763 118.689C106.763 118.689 109.66 111.447 109.66 109.419C109.66 107.391 108.356 105.364 107.343 102.757C106.329 100.15 108.936 95.8046 108.936 95.8046C108.936 95.8046 110.579 83.2119 112.097 81.0191" stroke="#263238" stroke-width="0.579345" stroke-miterlimit="10" stroke-linecap="round" stroke-linejoin="round"/>
<path d="M93.0037 104.495L95.1762 102.177C95.1762 102.177 96.5232 103.014 99.6661 104.06C105.537 106.015 108.211 107.247 108.501 110.723C108.501 110.723 112.412 108.26 116.322 108.695C120.233 109.129 123.709 110.723 124.868 110.867C126.026 111.012 126.026 111.012 126.026 111.012L126.316 113.04L124.143 124.482L107.198 122.744L95.6107 112.605L93.0037 104.495Z" fill="white" stroke="#263238" stroke-width="0.579345" stroke-miterlimit="10" stroke-linecap="round" stroke-linejoin="round"/>
<path d="M92.2795 104.06L106.039 115.792L107.487 113.475L127.185 113.04L126.026 125.786L107.343 124.917L106.039 125.786L95.9004 118.254L92.2795 104.06Z" fill="#263238" stroke="#263238" stroke-width="0.579345" stroke-miterlimit="10" stroke-linecap="round" stroke-linejoin="round"/>
<path d="M140.22 100.15L139.931 116.661C139.931 116.661 131.385 121.441 126.606 122.744C121.826 124.048 118.929 124.048 118.495 124.048C118.06 124.048 116.177 121.006 115.164 119.992C114.15 118.978 113.332 118.962 111.477 118.035C108.897 116.745 107.777 116.516 107.922 117.095C108.067 117.675 108.211 118.254 109.515 118.978C110.818 119.703 111.687 120.282 111.687 120.282L111.977 120.861C111.977 120.861 108.791 120.427 107.487 120.137C106.184 119.847 102.852 117.53 102.852 117.53C102.852 117.53 101.435 117.443 102.449 119.181C103.463 120.919 104.446 121.006 104.446 121.006C104.446 121.006 104.735 122.744 105.894 123.758C107.053 124.772 107.922 125.351 107.922 125.351C107.922 125.351 105.17 124.627 105.46 125.351C105.749 126.075 107.487 126.365 109.66 127.379C111.832 128.393 116.757 128.538 119.509 128.972C122.261 129.407 128.778 129.841 134.572 129.262C140.365 128.682 149.055 124.772 150.648 123.468C152.242 122.165 151.228 107.536 150.793 104.205C150.359 100.874 149.49 94.6459 148.91 91.7491C148.331 88.8524 146.014 84.797 144.565 83.928C143.117 83.059 140.51 85.8108 140.22 100.15Z" fill="white" stroke="#263238" stroke-width="0.579345" stroke-miterlimit="10" stroke-linecap="round" stroke-linejoin="round"/>
<path d="M104.446 121.006C104.446 121.006 107.894 123.051 110.474 123.624L104.446 121.006Z" fill="white"/>
<path d="M104.446 121.006C104.446 121.006 107.894 123.051 110.474 123.624" stroke="#263238" stroke-width="0.579345" stroke-miterlimit="10" stroke-linecap="round" stroke-linejoin="round"/>
<path d="M107.922 125.351C107.922 125.351 109.757 126.06 111.333 126.06L107.922 125.351Z" fill="white"/>
<path d="M107.922 125.351C107.922 125.351 109.757 126.06 111.333 126.06" stroke="#263238" stroke-width="0.579345" stroke-miterlimit="10" stroke-linecap="round" stroke-linejoin="round"/>
<path d="M104.885 122.477C104.885 122.477 107.321 124.34 110.904 125.2L104.885 122.477Z" fill="white"/>
<path d="M104.885 122.477C104.885 122.477 107.321 124.34 110.904 125.2" stroke="#263238" stroke-width="0.579345" stroke-miterlimit="10" stroke-linecap="round" stroke-linejoin="round"/>
<path d="M136.299 129.01C141.958 127.96 149.207 124.647 150.649 123.468C152.242 122.165 151.228 107.536 150.793 104.205C150.359 100.874 149.49 94.6459 148.911 91.7491C148.331 88.8524 146.014 84.797 144.565 83.928C143.117 83.059 140.51 85.8108 140.22 100.15L139.931 116.661C139.931 116.661 136.609 118.518 132.95 120.233C134.363 121.768 136.743 125.008 136.299 129.01Z" fill="#3D4B88" stroke="#263238" stroke-width="0.579345" stroke-miterlimit="10" stroke-linecap="round" stroke-linejoin="round"/>
<path d="M121.464 76.2703C121.464 76.2703 120.169 83.7809 120.039 88.4429C119.91 93.1049 123.407 97.7663 128.327 91.8095C133.248 85.8526 132.471 76.0113 132.471 76.0113C132.471 76.0113 127.421 78.7307 121.464 76.2703Z" fill="white" stroke="#263238" stroke-width="0.579345" stroke-miterlimit="10" stroke-linecap="round" stroke-linejoin="round"/>
<path d="M121.853 79.5077C121.853 79.5077 122.112 83.522 121.723 85.7235" stroke="#263238" stroke-width="0.579345" stroke-miterlimit="10" stroke-linecap="round" stroke-linejoin="round"/>
<path d="M92.6682 115.124C92.6682 115.124 92.3009 116.153 92.889 117.109C93.477 118.064 96.5643 119.902 96.5643 119.167C96.5643 118.431 95.021 117.402 94.9474 116.888C94.8738 116.374 94.4329 115.638 94.4329 115.638C94.4329 115.638 93.3299 114.242 92.6682 115.124Z" fill="white" stroke="#263238" stroke-width="0.579345" stroke-miterlimit="10" stroke-linecap="round" stroke-linejoin="round"/>
<path d="M91.1875 110.829C91.1875 110.829 91.0444 112.976 91.4105 113.981C91.7766 114.987 95.6501 117.66 96.6455 117.148C97.6408 116.635 94.5789 113.979 93.8571 113.145C93.1346 112.312 91.1875 110.829 91.1875 110.829Z" fill="white" stroke="#263238" stroke-width="0.579345" stroke-miterlimit="10" stroke-linecap="round" stroke-linejoin="round"/>
<path d="M91.1979 108.215C91.1979 108.215 90.9042 110.346 91.1979 111.375C91.4917 112.404 95.167 115.344 96.1959 114.903C97.2249 114.462 94.3583 111.596 93.6966 110.713C93.0356 109.832 91.1979 108.215 91.1979 108.215Z" fill="white" stroke="#263238" stroke-width="0.579345" stroke-miterlimit="10" stroke-linecap="round" stroke-linejoin="round"/>
<path d="M92.9619 105.789C92.9619 105.789 90.7569 104.613 90.389 106.084C90.0217 107.554 91.7122 109.097 93.2556 110.347C94.799 111.597 95.4606 111.376 95.4606 110.2C95.4612 109.023 92.9619 105.789 92.9619 105.789Z" fill="white" stroke="#263238" stroke-width="0.579345" stroke-miterlimit="10" stroke-linecap="round" stroke-linejoin="round"/>
<path d="M92.7622 151.759C92.7622 151.759 89.8654 153.305 84.4584 153.497C79.0514 153.69 74.6095 150.794 77.1198 148.476C79.6302 146.159 83.4926 144.807 86.9687 145.387C90.4448 145.966 95.6589 147.318 95.6589 147.318L92.7622 151.759Z" fill="white" stroke="#263238" stroke-width="0.579345" stroke-miterlimit="10" stroke-linecap="round" stroke-linejoin="round"/>
<path d="M93.535 146.932C93.7986 146.962 94.0738 146.979 94.3536 146.989C92.582 146.551 89.3637 145.786 86.9687 145.387C83.4926 144.807 79.6301 146.159 77.1198 148.476C75.8406 149.657 76.3684 150.987 77.9066 151.983C77.8116 150.894 78.0358 149.113 80.2095 148.09C83.4926 146.545 90.2518 146.545 93.535 146.932Z" fill="white" stroke="#263238" stroke-width="0.579345" stroke-miterlimit="10" stroke-linecap="round" stroke-linejoin="round"/>
<path d="M153.208 135.731C153.208 135.731 147.414 144.422 141.621 147.898C135.827 151.374 109.37 151.76 103.963 151.76C98.5562 151.76 92.7627 151.76 92.7627 151.76V147.705C92.7627 147.705 110.529 145.194 120.378 139.594C130.227 133.993 135.441 127.814 143.166 125.303C150.89 122.793 157.649 127.041 157.456 137.469" fill="#263238"/>
<path d="M153.208 135.731C153.208 135.731 147.414 144.422 141.621 147.898C135.827 151.374 109.37 151.76 103.963 151.76C98.5562 151.76 92.7627 151.76 92.7627 151.76V147.705C92.7627 147.705 110.529 145.194 120.378 139.594C130.227 133.993 135.441 127.814 143.166 125.303C150.89 122.793 157.649 127.041 157.456 137.469" stroke="#263238" stroke-width="0.579345" stroke-miterlimit="10" stroke-linecap="round" stroke-linejoin="round"/>
<path d="M149.314 142.38C146.192 145.333 140.773 149.189 132.422 150.736" stroke="white" stroke-width="0.579345" stroke-miterlimit="10" stroke-linecap="round" stroke-linejoin="round"/>
<path d="M153.111 137.662C153.111 137.662 152.627 138.629 151.483 140.045" stroke="white" stroke-width="0.579345" stroke-miterlimit="10" stroke-linecap="round" stroke-linejoin="round"/>
<path d="M123.854 138.531C123.854 138.531 120.088 141.718 114.584 142.008" stroke="white" stroke-width="0.579345" stroke-miterlimit="10" stroke-linecap="round" stroke-linejoin="round"/>
<path d="M89.3444 127.488C89.1335 127.465 88.9215 127.444 88.7065 127.427L89.3444 127.488Z" fill="#263238"/>
<path d="M89.3444 127.488C89.1335 127.465 88.9215 127.444 88.7065 127.427" stroke="#263238" stroke-width="0.579345" stroke-miterlimit="10" stroke-linecap="round" stroke-linejoin="round"/>
<path d="M143.744 152.532C143.744 152.532 148.572 150.794 152.628 150.215C156.683 149.636 159.966 150.215 161.125 152.725C162.284 155.236 161.511 158.326 157.456 159.098C153.4 159.87 146.062 158.326 145.29 158.326C144.517 158.326 143.359 157.747 143.359 157.747L143.744 152.532Z" fill="white" stroke="#263238" stroke-width="0.579345" stroke-miterlimit="10" stroke-linecap="round" stroke-linejoin="round"/>
<path d="M156.447 150.061C157.681 150.536 160.01 151.842 159.58 154.85C159 158.905 154.173 158.905 150.89 158.905C150.643 158.905 150.405 158.943 150.174 159.005C152.605 159.293 155.437 159.483 157.455 159.098C161.511 158.326 162.283 155.236 161.124 152.725C160.361 151.07 158.67 150.258 156.447 150.061Z" fill="white" stroke="#263238" stroke-width="0.579345" stroke-miterlimit="10" stroke-linecap="round" stroke-linejoin="round"/>
<path d="M87.1621 123.179C87.1621 123.179 80.5964 122.02 76.3475 125.303C72.0991 128.586 72.6785 132.062 76.7339 137.083C80.7893 142.104 91.2175 150.987 113.812 155.043C136.406 159.098 143.359 157.747 143.359 157.747L143.745 152.532C143.745 152.532 129.648 153.305 116.709 143.842C104.063 134.594 98.4275 128.482 89.3445 127.489" fill="#263238"/>
<path d="M87.1621 123.179C87.1621 123.179 80.5964 122.02 76.3475 125.303C72.0991 128.586 72.6785 132.062 76.7339 137.083C80.7893 142.104 91.2175 150.987 113.812 155.043C136.406 159.098 143.359 157.747 143.359 157.747L143.745 152.532C143.745 152.532 129.648 153.305 116.709 143.842C104.063 134.594 98.4275 128.482 89.3445 127.489" stroke="#263238" stroke-width="0.579345" stroke-miterlimit="10" stroke-linecap="round" stroke-linejoin="round"/>
<path d="M86.8204 127.567C86.1223 127.604 85.4352 127.689 84.748 127.813" stroke="white" stroke-width="0.579345" stroke-miterlimit="10" stroke-linecap="round" stroke-linejoin="round"/>
<path d="M140.944 152.436C140.944 152.436 127.619 152.146 112.556 140.559C101.91 132.37 95.6054 128.811 90.5732 127.837" stroke="white" stroke-width="0.579345" stroke-miterlimit="10" stroke-linecap="round" stroke-linejoin="round"/>
<path d="M140.819 68.219C137.261 70.0932 136.781 66.3315 136.792 64.0605C136.829 64.028 136.854 63.9944 136.863 63.9597C137.123 62.9186 136.863 57.7132 133.87 55.631C131.231 53.795 127.73 52.2111 124.464 52.2065C122.161 52.203 120.119 53.6705 118.885 55.5348C117.417 57.7537 117.542 60.326 117.422 62.8908C117.3 65.4816 117.057 68.2769 117.57 70.8405C118.253 74.2598 121.445 81.4397 125.32 81.4397C128.838 81.4397 135.08 76.178 137.223 73.0768C137.471 73.0027 137.974 72.8068 138.54 72.3219C139.337 71.6383 140.933 70.4981 140.819 68.219Z" fill="white" stroke="#263238" stroke-width="0.579345" stroke-miterlimit="10" stroke-linecap="round" stroke-linejoin="round"/>
<path d="M125.319 65.9393C125.319 65.9393 123.723 70.84 123.838 71.4101C123.952 71.9802 125.889 71.4101 125.889 71.4101" stroke="#263238" stroke-width="0.579345" stroke-miterlimit="10" stroke-linecap="round" stroke-linejoin="round"/>
<path d="M123.837 73.4613C123.837 73.4613 125.945 75.0476 129.308 72.5494" stroke="#263238" stroke-width="0.579345" stroke-miterlimit="10" stroke-linecap="round" stroke-linejoin="round"/>
<path d="M128.966 67.6489C128.966 67.6489 130.106 70.0422 133.753 68.6749" stroke="#263238" stroke-width="0.579345" stroke-miterlimit="10" stroke-linecap="round" stroke-linejoin="round"/>
<path d="M118.595 64.7996C118.595 64.7996 119.279 67.1929 122.926 66.281" stroke="#263238" stroke-width="0.579345" stroke-miterlimit="10" stroke-linecap="round" stroke-linejoin="round"/>
<path d="M125.055 62.9804C125.055 62.9804 123.764 58.33 119.507 60.6967" stroke="#263238" stroke-width="0.579345" stroke-miterlimit="10" stroke-linecap="round" stroke-linejoin="round"/>
<path d="M135.123 69.7369C136.082 67.4089 134.972 64.7443 132.644 63.7853C130.316 62.8263 127.651 63.936 126.692 66.2639C125.733 68.5919 126.843 71.2565 129.171 72.2155C131.499 73.1746 134.164 72.0648 135.123 69.7369Z" stroke="#263238" stroke-width="0.579345" stroke-miterlimit="10" stroke-linecap="round" stroke-linejoin="round"/>
<path d="M120.418 70.4981C122.936 70.4981 124.977 68.457 124.977 65.9392C124.977 63.4214 122.936 61.3804 120.418 61.3804C117.9 61.3804 115.859 63.4214 115.859 65.9392C115.859 68.457 117.9 70.4981 120.418 70.4981Z" stroke="#263238" stroke-width="0.579345" stroke-miterlimit="10" stroke-linecap="round" stroke-linejoin="round"/>
<path d="M135.234 68.9026L138.995 68.219" stroke="#263238" stroke-width="0.579345" stroke-miterlimit="10" stroke-linecap="round" stroke-linejoin="round"/>
<path d="M115.974 64.7997L117.341 63.7742" stroke="#263238" stroke-width="0.579345" stroke-miterlimit="10" stroke-linecap="round" stroke-linejoin="round"/>
<path d="M120.467 53.9393C120.467 53.9393 124.501 51.4667 125.932 53.8089C127.364 56.1512 133.844 71.6974 140.82 68.219C147.795 64.74 140.767 53.2887 134.001 49.6446C127.233 46.0011 121.508 49.1238 120.467 53.9393Z" fill="#263238" stroke="#263238" stroke-width="0.579345" stroke-miterlimit="10" stroke-linecap="round" stroke-linejoin="round"/>
<path d="M124.463 52.2063C124.463 52.2063 122.187 50.2875 120.86 51.1716C119.534 52.0557 119.534 53.1611 119.534 53.1611" stroke="white" stroke-width="0.579345" stroke-miterlimit="10" stroke-linecap="round" stroke-linejoin="round"/>
<path d="M141.066 64.1329C141.582 64.4608 142.139 64.7128 142.747 64.8785" stroke="white" stroke-width="0.579345" stroke-miterlimit="10" stroke-linecap="round" stroke-linejoin="round"/>
<path d="M123.513 47.4133C123.513 47.4133 127.493 42.9917 131.914 49.8454C134.816 54.3428 136.48 58.8403 138.656 61.7758" stroke="white" stroke-width="0.579345" stroke-miterlimit="10" stroke-linecap="round" stroke-linejoin="round"/>
<path d="M130.025 62.3403C130.025 62.3403 133.216 60.6307 135.952 63.2522" stroke="white" stroke-width="0.579345" stroke-miterlimit="10" stroke-linecap="round" stroke-linejoin="round"/>
<path d="M124.083 106.62C124.083 106.62 128.453 112.082 135.663 112.082" stroke="#263238" stroke-width="0.579345" stroke-miterlimit="10" stroke-linecap="round" stroke-linejoin="round"/>
<path d="M19.9077 218.77H219.846" stroke="#263238" stroke-width="0.579345" stroke-miterlimit="10" stroke-linecap="round" stroke-linejoin="round"/>
</svg>
